<svg width="300" height="300" viewBox="0 0 300 300" fill="none" xmlns="http://www.w3.org/2000/svg">
<mask id="mask0_989_2139" style="mask-type:luminance" maskUnits="userSpaceOnUse" x="80" y="15" width="147" height="264">
<path d="M80.0801 15.3489H226.747V278.667H80.0801V15.3489Z" fill="white"/>
</mask>
<g mask="url(#mask0_989_2139)">
<path d="M152.653 54.1718L152.544 54.0156L152.335 53.7552L151.965 53.177L151.231 52.0208C150.757 51.2343 150.283 50.5 149.809 49.7135C148.913 48.1354 148.017 46.5625 147.226 44.9895C145.596 41.7864 144.116 38.4791 142.908 35.0677C141.747 31.6562 140.799 28.0885 140.747 24.3073C140.695 22.4739 140.908 20.4791 141.856 18.6927C142.33 17.802 143.064 17.0156 143.908 16.4895C144.752 15.9635 145.7 15.651 146.648 15.5416C147.596 15.3854 148.596 15.4375 149.544 15.7552C150.491 16.0677 151.283 16.6458 151.913 17.3281C153.179 18.7448 153.809 20.4791 154.335 22.2083C155.283 25.7239 155.757 29.3489 155.866 32.9687C155.919 34.7552 155.866 36.5885 155.705 38.375C155.549 40.1614 155.392 41.9427 155.127 43.7291C154.861 45.5104 154.549 47.2968 154.231 49.0312C154.075 49.9218 153.861 50.7604 153.653 51.6562L153.335 52.9635L153.179 53.5937L153.075 53.9114L153.017 54.0677V54.2239C153.017 54.2239 152.965 54.3281 152.913 54.3281C152.757 54.3281 152.653 54.2239 152.653 54.1718ZM152.757 54.2239V53.9635L152.809 53.6458L152.861 52.9635L152.965 51.6562L153.231 48.9791L153.705 43.625C153.971 40.052 154.179 36.5364 154.335 32.9687C154.497 29.4531 154.653 25.8333 153.809 22.4166C153.387 20.7395 152.705 19.0052 151.491 17.802C150.913 17.2239 150.174 16.75 149.335 16.5937C148.544 16.3854 147.7 16.4375 146.856 16.6458C146.07 16.8541 145.278 17.1718 144.648 17.6406C144.012 18.1145 143.538 18.7448 143.226 19.4791C142.59 20.9479 142.434 22.6302 142.538 24.3073C142.642 25.9895 142.96 27.7187 143.382 29.401C143.804 31.0781 144.278 32.7604 144.856 34.4375C145.96 37.7968 147.226 41.1041 148.596 44.4114C149.278 46.0364 149.965 47.7187 150.705 49.3437L151.757 51.8125L152.283 53.0208L152.544 53.6458L152.705 53.9635L152.757 54.1198C152.809 54.1718 152.757 54.1718 152.705 54.2239C152.757 54.1718 152.705 54.276 152.757 54.2239ZM210.903 160.245C210.695 159.984 210.538 159.724 210.325 159.51C210.116 159.302 209.955 158.984 209.747 158.776C201.215 147.599 196.632 141.297 192.049 131.276C186.783 119.833 183.778 108.599 180.83 101.042C173.773 83.0416 166.924 67.0833 166.924 67.0833L80.9133 104.927L84.231 112.172C84.231 112.172 94.1894 130.958 107.408 150.745C120.627 170.531 131.898 199.245 123.945 216.354C118.679 227.797 104.773 259.547 126.054 272.094C146.596 284.167 161.028 275.714 172.929 261.542C184.726 247.531 190.361 238.818 204.32 227.115C204.794 226.693 205.268 226.328 205.794 225.906C207.695 224.333 209.747 222.703 212.012 221.026C232.606 205.333 230.606 186.385 210.903 160.245Z" fill="#C24329"/>
</g>
<path d="M180.564 94.1146L97.6633 137.677C94.8195 139.146 91.2883 138.099 89.8143 135.266L77.1737 111.328L76.2778 109.651L69.1685 96.2136C67.6945 93.3802 68.7466 89.8646 71.5903 88.3958L154.497 44.8281C157.34 43.3594 160.866 44.4115 162.34 47.2448L169.346 60.4688L170.241 62.1511L182.991 86.2917C184.517 89.1302 183.413 92.6458 180.564 94.1146Z" fill="#F9F3EF"/>
<path d="M178.038 76.901L177.934 80.3125L177.83 84.4583L174.247 82.3073L170.663 80.0989L174.351 78.1041L177.721 76.2708L178.038 76.901ZM163.288 88.2864L163.398 84.1406L156.023 88.1302L159.606 90.2812L163.184 92.4375L163.288 88.2864ZM170.929 85.8229C171.189 84.6666 170.507 83.4583 169.293 83.1979C168.137 82.9375 166.924 83.6198 166.663 84.8229C166.398 86.0312 167.085 87.1875 168.293 87.4479C169.507 87.7135 170.611 86.9739 170.929 85.8229ZM156.231 93.7448C156.497 92.5937 155.809 91.3854 154.601 91.125C153.387 90.8594 152.231 91.5416 151.965 92.75C151.705 93.9062 152.387 95.1094 153.601 95.375C154.809 95.6354 155.971 94.9531 156.231 93.7448ZM148.596 96.2656L148.7 92.1198L141.325 96.1094L148.491 100.411L148.596 96.2656ZM133.903 104.193L134.007 100.047L126.632 104.036L130.215 106.187L133.793 108.339L133.903 104.193ZM141.538 101.724C141.799 100.568 141.116 99.3646 139.903 99.0989C138.747 98.8385 137.533 99.5208 137.273 100.729C137.007 101.937 137.695 103.089 138.903 103.354C140.064 103.615 141.273 102.88 141.538 101.724ZM126.84 109.651C127.106 108.495 126.424 107.286 125.21 107.026C124.049 106.766 122.84 107.448 122.575 108.651C122.314 109.807 122.997 111.016 124.21 111.276C125.366 111.542 126.58 110.859 126.84 109.651ZM118.257 112.01L118.361 107.865L110.986 111.854L118.153 116.156L118.257 112.01ZM103.564 119.937L103.668 115.792L96.2935 119.781L99.8768 121.932L103.455 124.083L103.564 119.937ZM111.2 117.469C111.465 116.318 110.778 115.109 109.564 114.849C108.408 114.583 107.195 115.266 106.934 116.474C106.668 117.682 107.356 118.833 108.564 119.099C109.778 119.359 110.934 118.677 111.2 117.469ZM96.5591 125.448C96.8195 124.292 96.1372 123.089 94.9237 122.823C93.7674 122.562 92.5539 123.245 92.2882 124.453C92.0278 125.604 92.7101 126.812 93.9237 127.073C95.0799 127.339 96.2414 126.604 96.5591 125.448ZM88.4445 123.927L84.8664 125.87L88.2362 132.219L88.4445 123.927ZM163.288 75.2187L163.08 83.5104L166.767 81.5156L170.455 79.526L166.872 77.3698L163.288 75.2187ZM148.596 83.1458L148.387 91.4375L152.07 89.4427L155.757 87.4479L152.179 85.2969L148.596 83.1458ZM173.403 76.3229C174.455 75.7448 174.877 74.4323 174.299 73.3802C173.721 72.3333 172.403 71.9114 171.351 72.4896C170.293 73.0677 169.877 74.3802 170.455 75.4271C171.033 76.5312 172.351 76.901 173.403 76.3229ZM155.549 82.8802C155.809 84.0364 157.023 84.7708 158.184 84.5104C159.34 84.2448 160.08 83.0416 159.814 81.8854C159.549 80.7291 158.34 79.9948 157.179 80.2604C155.971 80.5208 155.283 81.6771 155.549 82.8802ZM133.903 91.125L133.793 95.2708L133.689 99.4166L141.064 95.4271L137.481 93.276L133.903 91.125ZM119.205 99.0469L118.997 107.339L122.684 105.349L126.366 103.354L122.788 101.198L119.205 99.0469ZM140.851 90.8073C141.116 91.9635 142.33 92.6979 143.486 92.4375C144.648 92.1719 145.382 90.9635 145.122 89.8125C144.856 88.6562 143.642 87.9219 142.486 88.1823C141.325 88.4479 140.59 89.651 140.851 90.8073ZM126.158 98.7864C126.424 99.9427 127.632 100.677 128.793 100.411C129.95 100.151 130.689 98.9427 130.424 97.7864C130.163 96.6354 128.95 95.901 127.788 96.1614C126.58 96.4219 125.892 97.5781 126.158 98.7864ZM103.616 106.87L103.507 111.016L103.403 115.161L110.778 111.172L107.194 109.021L103.616 106.87ZM88.9185 114.849L88.7101 123.141L96.0851 119.151L88.9185 114.849ZM110.512 106.604C110.778 107.76 111.991 108.495 113.148 108.234C114.309 107.969 115.043 106.766 114.783 105.609C114.517 104.453 113.304 103.719 112.148 103.984C110.986 104.245 110.252 105.401 110.512 106.604ZM95.8716 114.531C96.1372 115.687 97.3455 116.422 98.507 116.156C99.6632 115.896 100.403 114.687 100.137 113.536C99.8768 112.38 98.6632 111.646 97.507 111.906C96.2935 112.172 95.5539 113.375 95.8716 114.531ZM82.1789 120.042C82.0174 120.094 81.9132 120.146 81.8091 120.198L83.8612 124.031C84.6528 123.557 85.0747 122.615 84.8664 121.672C84.5487 120.464 83.3872 119.729 82.1789 120.042Z" fill="#C3442A"/>
<path d="M170.242 62.1511L77.1217 111.328L76.2259 109.651L169.346 60.4688L170.242 62.1511ZM77.8613 104.297C78.9655 103.719 79.3873 102.406 78.8092 101.307C78.2259 100.203 76.9134 99.7813 75.804 100.359C74.6998 100.938 74.278 102.25 74.8561 103.354C75.278 104.089 76.0176 104.557 76.804 104.557C77.1738 104.557 77.4915 104.505 77.8613 104.297ZM85.7051 100.203C86.8144 99.6251 87.2363 98.3126 86.653 97.2136C86.0748 96.1094 84.7571 95.6876 83.653 96.2657C82.5488 96.8438 82.1269 98.1563 82.7051 99.2605C83.0748 99.9949 83.8613 100.464 84.653 100.464C85.0228 100.464 85.3926 100.359 85.7051 100.203ZM93.6061 96.1094C94.7155 95.5313 95.1373 94.2188 94.554 93.1199C93.9759 92.0157 92.6582 91.5938 91.554 92.1719C90.4498 92.7501 90.028 94.0626 90.6061 95.1667C90.9759 95.9011 91.7623 96.3699 92.554 96.3699C92.9238 96.3699 93.2363 96.2657 93.6061 96.1094ZM101.455 92.0157C102.559 91.4376 102.981 90.1251 102.403 89.0261C101.825 87.9219 100.507 87.5001 99.403 88.0782C98.2936 88.6563 97.8717 89.9688 98.4551 91.073C98.8196 91.8074 99.6113 92.2761 100.403 92.2761C100.773 92.224 101.137 92.1719 101.455 92.0157ZM109.356 87.8699C110.46 87.2917 110.882 85.9792 110.304 84.8751C109.726 83.7761 108.408 83.3542 107.304 83.9324C106.195 84.5105 105.773 85.823 106.356 86.9219C106.773 87.6563 107.512 88.1303 108.304 88.1303C108.674 88.1303 108.986 88.0782 109.356 87.8699ZM117.205 83.7761C118.309 83.198 118.731 81.8855 118.153 80.7813C117.575 79.6824 116.257 79.2605 115.148 79.8386C114.044 80.4167 113.622 81.7292 114.2 82.8282C114.57 83.5626 115.361 84.0365 116.153 84.0365C116.518 84.0365 116.887 83.9324 117.205 83.7761ZM125.106 79.6824C126.21 79.1042 126.632 77.7917 126.054 76.6876C125.476 75.5886 124.158 75.1667 123.049 75.7449C121.945 76.323 121.523 77.6355 122.101 78.7344C122.523 79.4688 123.262 79.9428 124.049 79.9428C124.419 79.9428 124.736 79.8386 125.106 79.6824ZM132.955 75.5886C134.059 75.0105 134.481 73.698 133.903 72.5938C133.32 71.4949 132.002 71.073 130.898 71.6511C129.794 72.2292 129.372 73.5417 129.95 74.6407C130.32 75.3751 131.111 75.849 131.898 75.849C132.268 75.7969 132.637 75.7449 132.955 75.5886ZM140.851 71.4428C141.96 70.8647 142.382 69.5522 141.799 68.448C141.221 67.349 139.903 66.9272 138.799 67.5053C137.695 68.0834 137.273 69.3959 137.851 70.4949C138.273 71.2292 139.007 71.7032 139.799 71.7032C140.169 71.7032 140.486 71.599 140.851 71.4428ZM148.7 67.349C149.809 66.7709 150.231 65.4584 149.648 64.3542C149.07 63.2553 147.752 62.8334 146.648 63.4115C145.538 63.9897 145.122 65.3022 145.7 66.4011C146.07 67.1355 146.856 67.6094 147.648 67.6094C148.018 67.6094 148.387 67.5053 148.7 67.349ZM156.601 63.2553C157.71 62.6772 158.127 61.3647 157.549 60.2605C156.971 59.1615 155.653 58.7397 154.549 59.3178C153.439 59.8959 153.018 61.2084 153.601 62.3074C154.023 63.0417 154.757 63.5157 155.549 63.5157C155.919 63.4636 156.231 63.4115 156.601 63.2553ZM164.45 59.1042C165.554 58.5313 165.976 57.2188 165.398 56.1147C164.82 55.0105 163.502 54.5938 162.398 55.1719C161.288 55.7501 160.867 57.0574 161.45 58.1615C161.814 58.8959 162.606 59.3699 163.398 59.3699C163.762 59.3699 164.132 59.3178 164.45 59.1042Z" fill="#E4C392"/>
<path d="M130.794 168.542C131.111 169.167 131.898 169.432 132.533 169.115C132.955 168.906 133.163 168.542 133.216 168.12L137.747 165.865L136.325 170.063C136.221 170.427 136.429 170.849 136.799 171.005C137.169 171.109 137.585 170.901 137.747 170.531L139.591 164.969L140.273 164.604C140.643 164.813 141.065 164.813 141.486 164.604C141.908 164.391 142.117 164.026 142.169 163.604L143.752 162.818L141.538 169.484C141.434 169.849 141.643 170.271 142.012 170.427C142.382 170.531 142.804 170.323 142.96 169.958L145.648 161.875L146.752 161.297C147.226 161.662 147.856 161.714 148.44 161.453C149.018 161.193 149.335 160.615 149.335 160.037L150.861 159.302L148.44 166.547C147.7 166.599 147.07 167.177 147.018 167.912C146.966 168.38 147.174 168.854 147.544 169.115C147.596 169.115 147.596 169.167 147.648 169.167C147.648 169.167 147.7 169.167 147.7 169.224C147.7 169.224 147.752 169.224 147.752 169.276C147.804 169.276 147.804 169.328 147.856 169.328C148.278 169.537 148.752 169.537 149.174 169.328C149.809 169.011 150.122 168.276 149.913 167.594L155.757 162.453L155.653 164.13C155.127 164.391 154.705 164.865 154.705 165.495C154.653 166.125 154.971 166.703 155.497 166.964L155.445 168.172L149.07 173.839C148.752 174.104 148.752 174.573 149.018 174.891C149.278 175.203 149.757 175.203 150.07 174.943L155.335 170.271L155.231 172.005C154.861 172.214 154.653 172.578 154.601 173.052C154.549 173.526 154.757 173.891 155.075 174.156L155.023 174.943L150.596 178.828C150.283 179.089 150.283 179.563 150.544 179.875C150.809 180.193 151.283 180.193 151.596 179.927L154.919 176.99L154.601 182.026C154.231 182.24 154.023 182.604 153.971 183.078C153.913 183.813 154.497 184.391 155.179 184.443C155.919 184.495 156.497 183.917 156.549 183.234C156.549 182.818 156.393 182.396 156.075 182.136L156.393 177.094L159.341 180.401C159.606 180.714 160.08 180.714 160.393 180.453C160.71 180.193 160.71 179.719 160.445 179.401L156.549 174.995L156.601 174.208C156.971 174 157.179 173.63 157.236 173.156C157.236 172.74 157.075 172.318 156.762 172.057L156.867 170.323L161.554 175.573C161.814 175.886 162.288 175.886 162.606 175.625C162.924 175.365 162.924 174.891 162.658 174.573L156.971 168.224L157.023 167.016C157.549 166.755 157.971 166.281 157.971 165.651C157.971 165.021 157.71 164.443 157.179 164.182L157.288 162.505L162.341 168.224C162.028 168.906 162.184 169.693 162.815 170.115C163.236 170.375 163.71 170.427 164.132 170.271C164.184 170.271 164.184 170.219 164.242 170.219H164.294C164.294 170.219 164.346 170.219 164.346 170.167C164.398 170.167 164.398 170.115 164.45 170.115C164.82 169.849 165.08 169.432 165.132 168.958C165.19 168.224 164.716 167.594 164.028 167.438L162.45 159.828L163.872 160.771C163.82 161.349 164.08 161.979 164.606 162.292C165.132 162.662 165.768 162.662 166.294 162.344L167.346 163.026L169.085 171.375C169.19 171.792 169.559 172.005 169.981 171.953C170.403 171.844 170.611 171.479 170.559 171.057L169.137 164.13L170.611 165.073C170.611 165.495 170.825 165.865 171.19 166.125C171.559 166.386 171.981 166.386 172.403 166.229L173.033 166.651L174.247 172.422C174.351 172.844 174.721 173.052 175.143 173C175.565 172.896 175.773 172.526 175.721 172.109L174.825 167.802L179.038 170.589C179.038 171.005 179.252 171.375 179.617 171.636C180.2 172.005 181.038 171.844 181.408 171.271C181.778 170.693 181.622 169.849 181.038 169.484C180.674 169.224 180.252 169.224 179.83 169.38L175.617 166.599L179.934 165.703C180.356 165.599 180.565 165.234 180.512 164.813C180.408 164.391 180.038 164.182 179.617 164.234L173.825 165.443L173.195 165.021C173.195 164.604 172.981 164.234 172.611 163.974C172.247 163.708 171.825 163.708 171.403 163.87L169.929 162.922L176.882 161.505C177.299 161.401 177.512 161.031 177.46 160.615C177.356 160.193 176.986 159.984 176.565 160.037L168.19 161.771L167.137 161.089C167.189 160.511 166.924 159.88 166.398 159.563C165.872 159.25 165.242 159.198 164.716 159.511L163.288 158.568L170.773 157.047C171.19 157.677 171.981 157.886 172.669 157.568C173.085 157.359 173.403 156.938 173.455 156.521C173.455 156.469 173.455 156.469 173.455 156.417V156.365V156.307C173.455 156.255 173.455 156.255 173.455 156.203C173.455 155.734 173.195 155.313 172.773 155.052C172.195 154.63 171.403 154.734 170.877 155.261L163.45 152.792L164.976 152.057C165.45 152.427 166.08 152.479 166.663 152.214C167.242 151.953 167.559 151.375 167.559 150.797L168.663 150.224L176.773 152.896C177.143 153.005 177.565 152.792 177.721 152.427C177.83 152.057 177.617 151.641 177.247 151.479L170.559 149.276L172.137 148.49C172.507 148.698 172.929 148.698 173.351 148.49C173.773 148.281 173.981 147.912 174.038 147.495L174.721 147.125L180.304 148.964C180.674 149.068 181.096 148.859 181.252 148.49C181.356 148.12 181.148 147.703 180.778 147.547L176.565 146.13L181.096 143.87C181.46 144.078 181.882 144.078 182.304 143.87C182.94 143.557 183.2 142.771 182.882 142.141C182.57 141.511 181.778 141.245 181.148 141.563C180.726 141.771 180.512 142.141 180.46 142.557L175.934 144.818L177.356 140.615C177.46 140.25 177.247 139.828 176.882 139.672C176.512 139.568 176.091 139.776 175.934 140.146L174.091 145.708L173.403 146.073C173.033 145.865 172.611 145.865 172.195 146.073C171.773 146.287 171.559 146.651 171.507 147.073L169.929 147.859L172.137 141.193C172.247 140.828 172.033 140.406 171.663 140.25C171.299 140.146 170.877 140.354 170.716 140.724L168.033 148.802L166.924 149.38C166.45 149.016 165.82 148.964 165.242 149.224C164.658 149.484 164.346 150.063 164.346 150.641L162.815 151.375L165.242 144.136C165.976 144.078 166.611 143.505 166.663 142.771C166.716 142.297 166.502 141.823 166.137 141.563C166.08 141.563 166.08 141.511 166.028 141.511C166.028 141.511 165.976 141.511 165.976 141.458C165.976 141.458 165.924 141.458 165.924 141.406C165.872 141.406 165.872 141.349 165.82 141.349C165.398 141.141 164.924 141.141 164.502 141.349C163.872 141.667 163.554 142.401 163.768 143.083L157.919 148.229L158.023 146.547C158.549 146.287 158.971 145.813 158.971 145.182C158.971 144.552 158.71 143.974 158.184 143.714L158.236 142.505L164.606 136.839C164.924 136.573 164.924 136.104 164.658 135.787C164.398 135.474 163.924 135.474 163.606 135.734L158.341 140.406L158.445 138.677C158.815 138.464 159.023 138.099 159.075 137.625C159.075 137.203 158.919 136.787 158.601 136.521L158.658 135.734L163.08 131.849C163.398 131.589 163.398 131.115 163.132 130.802C162.872 130.484 162.398 130.484 162.08 130.75L158.762 133.688L159.075 128.651C159.445 128.438 159.658 128.073 159.71 127.599C159.762 126.865 159.184 126.287 158.497 126.234C157.762 126.182 157.179 126.761 157.127 127.443C157.127 127.865 157.288 128.281 157.601 128.547L157.288 133.583L154.335 130.276C154.075 129.964 153.601 129.964 153.283 130.224C152.966 130.484 152.966 130.958 153.231 131.276L157.127 135.682L157.075 136.469C156.705 136.682 156.497 137.047 156.445 137.521C156.445 137.938 156.601 138.359 156.919 138.62L156.815 140.354L152.127 135.104C151.861 134.792 151.387 134.792 151.07 135.052C150.757 135.318 150.757 135.787 151.018 136.104L156.705 142.453L156.653 143.662C156.127 143.922 155.705 144.396 155.705 145.026C155.653 145.656 155.971 146.234 156.497 146.495L156.393 148.177L151.335 142.453C151.653 141.771 151.492 140.984 150.861 140.563C150.44 140.302 149.966 140.25 149.544 140.406C149.492 140.406 149.492 140.458 149.44 140.458H149.387C149.387 140.458 149.335 140.458 149.335 140.511C149.278 140.511 149.278 140.563 149.226 140.563C148.861 140.828 148.596 141.245 148.544 141.719C148.492 142.453 148.966 143.083 149.648 143.24L151.231 150.849L149.809 149.906C149.861 149.328 149.596 148.698 149.07 148.386C148.544 148.016 147.913 148.016 147.382 148.333L146.33 147.651L144.591 139.302C144.486 138.886 144.117 138.677 143.7 138.729C143.278 138.781 143.065 139.198 143.117 139.62L144.538 146.547L143.065 145.604C143.065 145.182 142.856 144.818 142.486 144.552C142.117 144.292 141.695 144.292 141.273 144.448L140.643 144.026L139.429 138.255C139.325 137.833 138.955 137.625 138.533 137.677C138.117 137.781 137.903 138.151 137.955 138.568L138.851 142.875L134.637 140.094C134.637 139.672 134.429 139.302 134.059 139.042C133.481 138.677 132.637 138.833 132.268 139.412C131.898 139.984 132.059 140.828 132.637 141.193C133.007 141.458 133.429 141.458 133.846 141.297L138.059 144.078L133.742 144.974C133.32 145.078 133.111 145.443 133.163 145.865C133.268 146.287 133.637 146.495 134.059 146.443L139.851 145.234L140.486 145.656C140.486 146.073 140.695 146.443 141.065 146.703C141.434 146.969 141.856 146.969 142.273 146.813L143.752 147.755L136.955 149.328C136.533 149.432 136.325 149.802 136.377 150.224C136.481 150.641 136.851 150.849 137.273 150.797L145.648 149.068L146.7 149.75C146.648 150.328 146.908 150.958 147.44 151.271C147.966 151.589 148.596 151.641 149.122 151.323L150.544 152.271L143.065 153.792C142.643 153.162 141.856 152.953 141.169 153.266C140.747 153.474 140.434 153.896 140.377 154.318C140.377 154.37 140.377 154.37 140.377 154.422V154.474V154.526C140.377 154.578 140.377 154.578 140.377 154.63C140.377 155.104 140.643 155.521 141.065 155.787C141.643 156.203 142.434 156.099 142.96 155.573L150.387 158.042L148.861 158.776C148.387 158.412 147.752 158.359 147.174 158.62C146.596 158.88 146.278 159.458 146.278 160.037L145.174 160.615L137.059 157.938C136.695 157.833 136.273 158.042 136.111 158.412C136.007 158.776 136.221 159.198 136.585 159.354L143.278 161.557L141.695 162.344C141.325 162.136 140.908 162.136 140.486 162.344C140.065 162.557 139.851 162.922 139.799 163.344L139.117 163.708L133.533 161.875C133.163 161.771 132.742 161.979 132.585 162.344C132.481 162.714 132.69 163.136 133.059 163.292L137.273 164.708L132.742 166.964C132.372 166.755 131.95 166.755 131.528 166.964C130.742 167.12 130.476 167.912 130.794 168.542ZM152.127 153.318L154.653 154.948C154.601 155.052 154.601 155.208 154.601 155.313C154.601 155.469 154.601 155.682 154.653 155.839L152.018 157.151L144.752 154.787L152.127 153.318ZM156.341 150.328L156.179 153.37C155.919 153.474 155.653 153.578 155.393 153.74L152.913 152.109L151.335 144.656L156.341 150.328ZM161.08 152.479L158.288 153.896C158.075 153.74 157.867 153.583 157.601 153.474L157.762 150.432L163.45 145.339L161.08 152.479ZM161.606 157.62L158.971 155.891C158.971 155.787 159.023 155.682 159.023 155.573C159.023 155.417 159.023 155.261 159.023 155.104L161.815 153.74L169.085 156.099L161.606 157.62ZM157.341 160.667L157.549 157.568C157.815 157.464 158.023 157.359 158.236 157.203L160.815 158.88L162.398 166.333L157.341 160.667ZM152.601 158.516L155.283 157.151C155.497 157.359 155.757 157.464 156.023 157.568L155.867 160.563L150.174 165.651L152.601 158.516ZM169.294 260.391L169.403 264.537L162.028 260.547L165.606 258.396L169.19 256.245L169.294 260.391ZM159.606 253.25C158.445 253.516 157.71 254.719 157.971 255.875C158.236 257.031 159.445 257.766 160.606 257.5C161.762 257.24 162.502 256.031 162.236 254.88C161.976 253.672 160.762 252.99 159.606 253.25ZM154.497 248.214L147.33 252.516L154.705 256.505L154.497 248.214ZM139.851 240.182L136.273 242.333L132.69 244.484L140.065 248.474L139.96 244.328L139.851 240.182ZM144.96 245.219C143.804 245.484 143.065 246.693 143.33 247.844C143.591 249 144.804 249.734 145.96 249.474C147.122 249.208 147.856 248 147.596 246.849C147.278 245.693 146.122 244.958 144.96 245.219ZM130.268 237.245C129.106 237.505 128.372 238.714 128.632 239.865C128.898 241.021 130.106 241.755 131.268 241.495C132.424 241.229 133.163 240.026 132.898 238.87C132.637 237.714 131.476 236.927 130.268 237.245ZM124.262 232.307L120.679 234.464L117.101 236.615L120.783 238.609L124.471 240.604L124.367 236.453L124.262 232.307ZM158.127 263.276L161.71 261.125L154.335 257.136L154.445 261.281L154.549 265.427L158.127 263.276ZM163.132 268.417C164.294 268.682 165.502 268 165.768 266.844C166.028 265.688 165.346 264.484 164.184 264.219C163.028 263.958 161.814 264.641 161.554 265.797C161.236 266.948 161.924 268.104 163.132 268.417ZM143.486 255.245L147.07 253.094L139.695 249.104L139.903 257.396L143.486 255.245ZM128.846 247.266L132.424 245.115L128.742 243.12L125.054 241.125L125.158 245.271L125.262 249.422L128.846 247.266ZM148.44 260.391C149.596 260.651 150.809 259.969 151.07 258.813C151.335 257.662 150.648 256.453 149.492 256.188C148.33 255.927 147.122 256.609 146.856 257.766C146.544 258.922 147.278 260.125 148.44 260.391ZM133.794 252.359C134.955 252.62 136.163 251.938 136.429 250.787C136.695 249.63 136.007 248.422 134.851 248.162C133.69 247.896 132.481 248.578 132.216 249.734C131.898 250.943 132.637 252.094 133.794 252.359ZM118.205 244.484C119.361 244.75 120.575 244.068 120.841 242.912C121.101 241.755 120.419 240.547 119.257 240.287C118.101 240.026 116.887 240.708 116.627 241.859C116.309 243.016 117.044 244.224 118.205 244.484ZM209.747 158.724C208.695 159.615 200.898 166.599 196.262 177.932C191.731 188.958 189.575 206.537 204.268 227.115C204.742 226.693 205.216 226.328 205.742 225.906C194.367 209.948 191.731 194.099 198.002 178.719C202.533 167.594 210.325 160.771 210.903 160.245L209.747 158.724ZM207.637 219.609C206.903 219.609 206.216 219.24 205.794 218.609C205.111 217.615 205.377 216.198 206.429 215.568C207.429 214.886 208.851 215.146 209.481 216.198C210.169 217.193 209.903 218.609 208.851 219.292C208.533 219.505 208.059 219.609 207.637 219.609ZM203.424 211.839C202.585 211.839 201.742 211.313 201.372 210.474C200.898 209.323 201.424 208.063 202.533 207.589C203.69 207.115 204.955 207.641 205.429 208.797C205.903 209.896 205.377 211.208 204.268 211.682C204.007 211.787 203.69 211.839 203.424 211.839ZM200.898 203.391C199.846 203.391 198.898 202.604 198.684 201.552C198.476 200.344 199.32 199.193 200.528 198.979C201.742 198.771 202.898 199.609 203.111 200.818C203.32 202.026 202.476 203.177 201.268 203.391C201.163 203.339 201.054 203.391 200.898 203.391ZM200.58 194.573C200.528 194.573 200.424 194.573 200.372 194.573C199.158 194.469 198.262 193.365 198.372 192.156C198.476 190.948 199.58 190.057 200.794 190.162C202.002 190.266 202.898 191.37 202.794 192.578C202.69 193.682 201.742 194.573 200.58 194.573ZM202.533 185.912C202.268 185.912 202.054 185.859 201.794 185.755C200.632 185.333 200.054 184.073 200.424 182.922C200.846 181.766 202.111 181.188 203.268 181.609C204.429 182.026 205.007 183.287 204.637 184.443C204.32 185.386 203.481 185.912 202.533 185.912ZM206.429 177.984C206.007 177.984 205.637 177.88 205.268 177.672C204.216 176.99 203.898 175.677 204.585 174.625C205.216 173.578 206.585 173.261 207.637 173.943C208.695 174.573 209.007 175.938 208.325 176.99C207.903 177.62 207.163 177.984 206.429 177.984ZM211.96 171.057C211.377 171.057 210.747 170.797 210.325 170.323C209.481 169.432 209.538 168.016 210.429 167.177C211.325 166.333 212.747 166.386 213.591 167.281C214.434 168.172 214.382 169.589 213.486 170.427C213.065 170.849 212.486 171.057 211.96 171.057Z" fill="#FAF5F2"/>
</svg>
