<svg width="300" height="300" viewBox="0 0 300 300" fill="none" xmlns="http://www.w3.org/2000/svg">
<mask id="mask0_989_2253" style="mask-type:luminance" maskUnits="userSpaceOnUse" x="118" y="85" width="177" height="143">
<path d="M118.747 85.3333H294.153V228H118.747V85.3333Z" fill="white"/>
</mask>
<g mask="url(#mask0_989_2253)">
<path fill-rule="evenodd" clip-rule="evenodd" d="M118.772 225.693C118.772 225.693 160.538 142.552 156.554 110.979C156.554 110.979 203.835 141.167 229.179 86.177C229.179 86.177 246.21 118.943 293.731 92.2395C289.121 96.4583 262.632 132.792 276.611 154.818C276.611 154.818 216.174 153.781 234.049 204.677C200.137 185.875 154.043 210.021 123.986 227.682C170.621 167.479 205.502 133.375 249.476 123.724C193.621 132.682 148.809 188.146 118.772 225.693Z" fill="#128B3B"/>
</g>
<mask id="mask1_989_2253" style="mask-type:luminance" maskUnits="userSpaceOnUse" x="6" y="41" width="131" height="190">
<path d="M6.30908 41.8699H136.08V230.667H6.30908V41.8699Z" fill="white"/>
</mask>
<g mask="url(#mask1_989_2253)">
<path fill-rule="evenodd" clip-rule="evenodd" d="M136.038 223.547C136.038 223.547 121.043 132.359 133.033 105.807C133.033 105.807 82.9341 104.964 81.2258 56.573C81.2258 56.573 55.106 91.6772 6.30908 42.0105C6.30908 42.0105 30.283 77.5417 8.01742 119.938C8.01742 119.938 43.1164 128.505 34.1372 178.578C34.1372 178.578 112.689 208.771 128.965 230.604C115.267 188.208 86.3768 125.281 38.4237 83.1042C87.6112 123.656 104.445 160.38 136.038 223.547Z" fill="#128B3B"/>
</g>
<mask id="mask2_989_2253" style="mask-type:luminance" maskUnits="userSpaceOnUse" x="121" y="190" width="69" height="68">
<path d="M121.414 190.667H189.414V257.755H121.414V190.667Z" fill="white"/>
</mask>
<g mask="url(#mask2_989_2253)">
<path d="M189.08 224.609C189.08 225.703 189.028 226.792 188.919 227.88C188.809 228.969 188.653 230.052 188.439 231.125C188.226 232.198 187.96 233.255 187.643 234.302C187.325 235.349 186.955 236.375 186.538 237.385C186.122 238.396 185.653 239.385 185.137 240.349C184.622 241.313 184.059 242.25 183.45 243.161C182.846 244.068 182.195 244.948 181.502 245.792C180.804 246.635 180.075 247.448 179.299 248.219C178.528 248.995 177.715 249.724 176.872 250.422C176.028 251.115 175.148 251.766 174.242 252.37C173.33 252.979 172.393 253.542 171.429 254.057C170.465 254.573 169.476 255.036 168.465 255.458C167.455 255.875 166.429 256.245 165.382 256.563C164.335 256.88 163.278 257.146 162.205 257.359C161.132 257.573 160.049 257.729 158.96 257.839C157.872 257.948 156.783 258 155.689 258C154.596 258 153.502 257.948 152.419 257.839C151.33 257.729 150.247 257.573 149.174 257.359C148.101 257.146 147.044 256.88 145.997 256.563C144.95 256.245 143.924 255.875 142.913 255.458C141.903 255.036 140.913 254.573 139.95 254.057C138.986 253.542 138.049 252.979 137.137 252.37C136.231 251.766 135.351 251.115 134.507 250.422C133.663 249.724 132.851 248.995 132.08 248.219C131.304 247.448 130.57 246.635 129.877 245.792C129.184 244.948 128.533 244.068 127.924 243.161C127.32 242.25 126.757 241.313 126.242 240.349C125.726 239.385 125.257 238.396 124.84 237.385C124.424 236.375 124.054 235.349 123.736 234.302C123.419 233.255 123.153 232.198 122.939 231.125C122.726 230.052 122.564 228.969 122.46 227.88C122.351 226.792 122.299 225.703 122.299 224.609C122.299 223.516 122.351 222.422 122.46 221.333C122.564 220.25 122.726 219.167 122.939 218.094C123.153 217.021 123.419 215.964 123.736 214.917C124.054 213.87 124.424 212.839 124.84 211.828C125.257 210.823 125.726 209.833 126.242 208.87C126.757 207.906 127.32 206.969 127.924 206.057C128.533 205.151 129.184 204.271 129.877 203.427C130.57 202.578 131.304 201.771 132.08 201C132.851 200.224 133.663 199.49 134.507 198.797C135.351 198.104 136.231 197.453 137.137 196.844C138.049 196.24 138.986 195.677 139.95 195.161C140.913 194.646 141.903 194.177 142.913 193.76C143.924 193.344 144.95 192.974 145.997 192.656C147.044 192.339 148.101 192.073 149.174 191.859C150.247 191.646 151.33 191.484 152.419 191.38C153.502 191.271 154.596 191.219 155.689 191.219C156.783 191.219 157.872 191.271 158.96 191.38C160.049 191.484 161.132 191.646 162.205 191.859C163.278 192.073 164.335 192.339 165.382 192.656C166.429 192.974 167.455 193.344 168.465 193.76C169.476 194.177 170.465 194.646 171.429 195.161C172.393 195.677 173.33 196.24 174.242 196.844C175.148 197.453 176.028 198.104 176.872 198.797C177.715 199.49 178.528 200.224 179.299 201C180.075 201.771 180.804 202.578 181.502 203.427C182.195 204.271 182.846 205.151 183.45 206.057C184.059 206.969 184.622 207.906 185.137 208.87C185.653 209.833 186.122 210.823 186.538 211.833C186.955 212.839 187.325 213.87 187.643 214.917C187.96 215.964 188.226 217.021 188.439 218.094C188.653 219.167 188.809 220.25 188.919 221.333C189.028 222.422 189.08 223.516 189.08 224.609Z" fill="#870000"/>
</g>
<path d="M186.809 222.313C186.809 223.271 186.762 224.229 186.668 225.182C186.575 226.135 186.434 227.083 186.247 228.021C186.059 228.964 185.825 229.891 185.549 230.807C185.267 231.724 184.945 232.625 184.58 233.51C184.215 234.396 183.804 235.26 183.351 236.104C182.903 236.953 182.408 237.771 181.877 238.568C181.346 239.365 180.773 240.135 180.168 240.875C179.559 241.615 178.913 242.323 178.236 243.005C177.559 243.682 176.851 244.323 176.111 244.932C175.372 245.537 174.601 246.109 173.804 246.641C173.007 247.172 172.184 247.667 171.34 248.12C170.497 248.568 169.632 248.979 168.747 249.344C167.861 249.714 166.96 250.037 166.043 250.313C165.127 250.589 164.2 250.823 163.257 251.01C162.32 251.198 161.372 251.339 160.418 251.432C159.465 251.526 158.507 251.573 157.549 251.573C156.59 251.573 155.637 251.526 154.684 251.432C153.731 251.339 152.783 251.198 151.84 251.01C150.903 250.823 149.976 250.589 149.059 250.313C148.142 250.037 147.241 249.714 146.356 249.344C145.471 248.979 144.601 248.568 143.757 248.12C142.913 247.667 142.09 247.172 141.293 246.641C140.497 246.109 139.731 245.537 138.991 244.932C138.247 244.323 137.538 243.682 136.861 243.005C136.184 242.323 135.543 241.615 134.934 240.875C134.325 240.135 133.757 239.365 133.226 238.568C132.689 237.771 132.2 236.953 131.747 236.104C131.293 235.26 130.887 234.396 130.517 233.51C130.153 232.625 129.83 231.724 129.554 230.807C129.273 229.891 129.043 228.964 128.856 228.021C128.668 227.083 128.528 226.135 128.434 225.182C128.34 224.229 128.293 223.271 128.293 222.313C128.293 221.354 128.34 220.401 128.434 219.448C128.528 218.495 128.668 217.547 128.856 216.609C129.043 215.667 129.273 214.74 129.554 213.823C129.83 212.906 130.153 212.005 130.517 211.12C130.887 210.234 131.293 209.37 131.747 208.521C132.2 207.677 132.689 206.859 133.226 206.063C133.757 205.266 134.325 204.495 134.934 203.755C135.543 203.016 136.184 202.302 136.861 201.625C137.538 200.948 138.247 200.307 138.991 199.698C139.731 199.089 140.497 198.521 141.293 197.99C142.09 197.458 142.913 196.964 143.757 196.51C144.601 196.063 145.471 195.651 146.356 195.287C147.241 194.917 148.142 194.594 149.059 194.318C149.976 194.042 150.903 193.807 151.84 193.62C152.783 193.432 153.731 193.292 154.684 193.198C155.637 193.104 156.59 193.057 157.549 193.057C158.507 193.057 159.465 193.104 160.418 193.198C161.372 193.292 162.32 193.432 163.257 193.62C164.2 193.807 165.127 194.042 166.043 194.318C166.96 194.594 167.861 194.917 168.747 195.287C169.632 195.651 170.497 196.063 171.34 196.51C172.184 196.964 173.007 197.458 173.804 197.99C174.601 198.521 175.372 199.089 176.111 199.698C176.851 200.307 177.559 200.948 178.236 201.625C178.913 202.302 179.559 203.016 180.168 203.755C180.773 204.495 181.346 205.266 181.877 206.063C182.408 206.859 182.903 207.677 183.351 208.521C183.804 209.37 184.215 210.234 184.58 211.12C184.945 212.005 185.267 212.906 185.549 213.823C185.825 214.74 186.059 215.667 186.247 216.609C186.434 217.547 186.575 218.495 186.668 219.448C186.762 220.401 186.809 221.354 186.809 222.313Z" fill="#E51A13"/>
<path d="M180.684 209.74C180.684 210.089 180.648 210.432 180.58 210.771C180.512 211.115 180.413 211.443 180.283 211.76C180.148 212.083 179.986 212.385 179.793 212.677C179.601 212.964 179.382 213.229 179.137 213.474C178.892 213.719 178.627 213.938 178.335 214.13C178.049 214.323 177.741 214.49 177.424 214.62C177.101 214.755 176.773 214.854 176.434 214.922C176.09 214.99 175.752 215.021 175.403 215.021C175.054 215.021 174.71 214.99 174.372 214.922C174.033 214.854 173.705 214.755 173.382 214.62C173.064 214.49 172.757 214.323 172.471 214.13C172.179 213.938 171.913 213.719 171.668 213.474C171.424 213.229 171.205 212.964 171.012 212.677C170.819 212.385 170.658 212.083 170.523 211.76C170.392 211.443 170.293 211.115 170.226 210.771C170.158 210.432 170.122 210.089 170.122 209.74C170.122 209.396 170.158 209.052 170.226 208.714C170.293 208.37 170.392 208.042 170.523 207.724C170.658 207.401 170.819 207.099 171.012 206.807C171.205 206.521 171.424 206.255 171.668 206.01C171.913 205.766 172.179 205.547 172.471 205.354C172.757 205.162 173.064 204.995 173.382 204.865C173.705 204.729 174.033 204.63 174.372 204.563C174.71 204.495 175.054 204.464 175.403 204.464C175.752 204.464 176.09 204.495 176.434 204.563C176.773 204.63 177.101 204.729 177.424 204.865C177.741 204.995 178.049 205.162 178.335 205.354C178.627 205.547 178.892 205.766 179.137 206.01C179.382 206.255 179.601 206.521 179.793 206.807C179.986 207.099 180.148 207.401 180.283 207.724C180.413 208.042 180.512 208.37 180.58 208.714C180.648 209.052 180.684 209.396 180.684 209.74Z" fill="white"/>
<path d="M165.528 174.427C166.002 175.234 166.429 176.068 166.825 176.917C167.215 177.766 167.564 178.635 167.866 179.516C168.174 180.401 168.434 181.302 168.653 182.208C168.872 183.12 169.043 184.042 169.174 184.969C169.299 185.896 169.382 186.823 169.418 187.76C169.455 188.698 169.444 189.63 169.387 190.562C169.33 191.5 169.231 192.427 169.08 193.354C168.934 194.276 168.741 195.193 168.507 196.099C168.267 197.005 167.986 197.896 167.663 198.771C167.34 199.651 166.97 200.51 166.564 201.354C166.153 202.193 165.705 203.016 165.215 203.812C164.726 204.609 164.194 205.38 163.632 206.125C163.064 206.875 162.465 207.588 161.83 208.276C161.194 208.963 160.523 209.615 159.825 210.24C159.127 210.859 158.398 211.443 157.637 211.995C156.882 212.542 156.095 213.052 155.288 213.526C154.481 214 153.653 214.432 152.804 214.823C151.95 215.213 151.085 215.562 150.2 215.87C149.314 216.177 148.418 216.437 147.507 216.656C146.595 216.87 145.679 217.047 144.752 217.172C143.825 217.302 142.892 217.38 141.96 217.417C141.023 217.453 140.085 217.443 139.153 217.385C138.22 217.333 137.288 217.229 136.366 217.083C135.439 216.937 134.528 216.745 133.622 216.505C132.715 216.271 131.825 215.99 130.944 215.661C130.069 215.338 129.21 214.974 128.366 214.562C127.523 214.156 126.705 213.703 125.908 213.213C125.111 212.724 124.335 212.198 123.59 211.63C122.845 211.068 122.132 210.463 121.444 209.828C120.757 209.193 120.101 208.526 119.481 207.828C118.861 207.125 118.273 206.396 117.726 205.641C117.174 204.88 116.663 204.099 116.189 203.292C115.72 202.484 115.288 201.656 114.898 200.802C114.507 199.953 114.158 199.083 113.851 198.203C113.543 197.318 113.283 196.417 113.064 195.51C112.845 194.599 112.674 193.682 112.549 192.75C112.418 191.823 112.335 190.896 112.304 189.958C112.267 189.021 112.278 188.088 112.33 187.156C112.387 186.219 112.486 185.292 112.637 184.365C112.783 183.443 112.976 182.526 113.21 181.62C113.45 180.713 113.731 179.823 114.054 178.948C114.382 178.068 114.747 177.208 115.158 176.365C115.564 175.526 116.012 174.703 116.502 173.906C116.991 173.109 117.523 172.338 118.085 171.594C118.653 170.849 119.252 170.13 119.887 169.443C120.523 168.755 121.194 168.104 121.892 167.479C122.595 166.859 123.325 166.276 124.08 165.724C124.835 165.177 125.622 164.667 126.429 164.193C127.236 163.719 128.064 163.286 128.913 162.896C129.767 162.505 130.632 162.156 131.517 161.849C132.403 161.547 133.299 161.281 134.21 161.062C135.122 160.849 136.038 160.677 136.965 160.547C137.892 160.422 138.825 160.338 139.762 160.302C140.694 160.266 141.632 160.276 142.564 160.333C143.497 160.385 144.429 160.49 145.351 160.635C146.278 160.781 147.194 160.974 148.095 161.213C149.002 161.448 149.892 161.729 150.773 162.057C151.653 162.38 152.512 162.745 153.351 163.156C154.194 163.562 155.012 164.016 155.809 164.505C156.611 164.995 157.382 165.521 158.127 166.088C158.872 166.651 159.59 167.255 160.278 167.891C160.96 168.526 161.616 169.193 162.236 169.891C162.856 170.594 163.444 171.323 163.991 172.078C164.543 172.838 165.054 173.62 165.528 174.427Z" fill="#870000"/>
<path d="M162.867 173.714C163.283 174.422 163.658 175.146 164.002 175.896C164.346 176.641 164.653 177.401 164.919 178.172C165.189 178.948 165.419 179.734 165.606 180.531C165.799 181.333 165.95 182.135 166.059 182.948C166.174 183.76 166.247 184.578 166.278 185.396C166.309 186.219 166.299 187.036 166.252 187.854C166.2 188.672 166.111 189.49 165.981 190.297C165.856 191.109 165.684 191.911 165.481 192.703C165.273 193.495 165.023 194.276 164.742 195.047C164.455 195.818 164.132 196.573 163.778 197.307C163.419 198.047 163.023 198.766 162.596 199.464C162.163 200.161 161.705 200.839 161.205 201.49C160.71 202.146 160.184 202.776 159.627 203.375C159.07 203.979 158.486 204.552 157.872 205.094C157.257 205.641 156.622 206.151 155.955 206.635C155.294 207.115 154.606 207.562 153.898 207.979C153.189 208.391 152.46 208.771 151.715 209.115C150.971 209.453 150.21 209.76 149.439 210.031C148.663 210.297 147.877 210.526 147.08 210.719C146.278 210.906 145.476 211.057 144.663 211.172C143.851 211.281 143.033 211.354 142.215 211.385C141.393 211.417 140.575 211.411 139.757 211.359C138.939 211.312 138.122 211.224 137.314 211.094C136.502 210.964 135.7 210.797 134.908 210.589C134.117 210.38 133.335 210.135 132.564 209.849C131.794 209.568 131.038 209.245 130.304 208.885C129.564 208.526 128.846 208.13 128.148 207.703C127.45 207.276 126.773 206.812 126.122 206.318C125.465 205.823 124.84 205.297 124.236 204.74C123.632 204.182 123.059 203.594 122.518 202.979C121.971 202.37 121.46 201.729 120.976 201.062C120.497 200.401 120.049 199.714 119.632 199.005C119.221 198.297 118.84 197.573 118.497 196.828C118.158 196.083 117.851 195.323 117.58 194.547C117.314 193.771 117.085 192.984 116.893 192.187C116.705 191.391 116.554 190.583 116.439 189.771C116.33 188.958 116.257 188.141 116.226 187.323C116.195 186.505 116.2 185.682 116.252 184.865C116.299 184.047 116.387 183.234 116.518 182.422C116.648 181.615 116.814 180.812 117.023 180.016C117.231 179.224 117.476 178.443 117.762 177.672C118.044 176.901 118.367 176.151 118.726 175.411C119.085 174.672 119.476 173.958 119.908 173.255C120.335 172.557 120.799 171.88 121.294 171.229C121.788 170.573 122.314 169.948 122.872 169.344C123.429 168.745 124.018 168.172 124.632 167.625C125.242 167.083 125.882 166.568 126.549 166.089C127.21 165.604 127.898 165.156 128.606 164.745C129.314 164.328 130.038 163.948 130.783 163.609C131.528 163.266 132.288 162.958 133.064 162.693C133.84 162.422 134.627 162.193 135.424 162.005C136.221 161.812 137.028 161.661 137.84 161.547C138.653 161.437 139.465 161.365 140.288 161.333C141.106 161.302 141.929 161.312 142.747 161.359C143.564 161.411 144.377 161.5 145.189 161.625C145.997 161.755 146.799 161.922 147.596 162.13C148.387 162.339 149.169 162.589 149.939 162.87C150.705 163.156 151.46 163.474 152.2 163.833C152.934 164.193 153.653 164.589 154.356 165.016C155.054 165.448 155.731 165.906 156.382 166.406C157.038 166.901 157.663 167.427 158.268 167.984C158.867 168.542 159.439 169.125 159.986 169.74C160.528 170.354 161.044 170.99 161.523 171.656C162.007 172.318 162.455 173.005 162.867 173.714Z" fill="#E51A13"/>
<path d="M150.549 165.526C150.851 166.047 151.043 166.604 151.121 167.198C151.205 167.792 151.168 168.38 151.017 168.963C150.866 169.542 150.611 170.073 150.246 170.552C149.882 171.026 149.444 171.417 148.924 171.724C148.408 172.026 147.851 172.219 147.257 172.302C146.663 172.38 146.075 172.344 145.491 172.193C144.913 172.042 144.382 171.786 143.903 171.422C143.424 171.057 143.033 170.62 142.731 170.099C142.429 169.583 142.236 169.026 142.153 168.432C142.075 167.838 142.106 167.25 142.257 166.667C142.413 166.088 142.668 165.557 143.033 165.078C143.392 164.599 143.835 164.208 144.351 163.906C144.871 163.604 145.429 163.411 146.023 163.328C146.616 163.25 147.205 163.281 147.783 163.437C148.366 163.588 148.898 163.844 149.371 164.208C149.851 164.568 150.241 165.01 150.549 165.526Z" fill="white"/>
<path d="M114.096 176.87C115.054 177.401 115.981 177.979 116.877 178.599C117.778 179.224 118.643 179.885 119.481 180.594C120.315 181.302 121.111 182.047 121.872 182.833C122.632 183.62 123.351 184.443 124.033 185.297C124.71 186.156 125.351 187.042 125.945 187.963C126.533 188.88 127.08 189.828 127.58 190.797C128.08 191.771 128.533 192.766 128.934 193.786C129.335 194.802 129.69 195.833 129.986 196.885C130.289 197.937 130.539 199.005 130.731 200.078C130.929 201.156 131.07 202.24 131.164 203.328C131.252 204.417 131.289 205.51 131.268 206.604C131.252 207.698 131.179 208.786 131.054 209.875C130.929 210.958 130.752 212.036 130.523 213.109C130.294 214.177 130.007 215.234 129.674 216.276C129.341 217.312 128.955 218.338 128.523 219.338C128.085 220.344 127.601 221.323 127.07 222.281C126.539 223.234 125.966 224.167 125.341 225.062C124.721 225.963 124.054 226.828 123.346 227.667C122.637 228.5 121.893 229.297 121.106 230.057C120.32 230.818 119.502 231.536 118.643 232.219C117.789 232.896 116.898 233.536 115.981 234.13C115.059 234.719 114.117 235.266 113.143 235.766C112.169 236.266 111.174 236.719 110.158 237.12C109.137 237.521 108.106 237.875 107.054 238.172C106.002 238.474 104.94 238.724 103.861 238.917C102.789 239.115 101.705 239.255 100.611 239.349C99.5229 239.437 98.4291 239.474 97.3354 239.453C96.2416 239.437 95.1531 239.365 94.0646 239.24C92.9812 239.115 91.9031 238.937 90.8354 238.708C89.7625 238.479 88.7104 238.193 87.6687 237.859C86.6271 237.526 85.6062 237.141 84.601 236.708C83.5958 236.271 82.6166 235.786 81.6583 235.255C80.7052 234.724 79.7781 234.151 78.8771 233.526C77.976 232.906 77.1114 232.24 76.2781 231.531C75.4448 230.823 74.6479 230.078 73.8823 229.292C73.1218 228.505 72.4031 227.687 71.7208 226.828C71.0437 225.974 70.4083 225.083 69.8146 224.167C69.2208 223.245 68.6739 222.302 68.1739 221.328C67.6739 220.354 67.226 219.359 66.8198 218.344C66.4187 217.323 66.0698 216.292 65.7677 215.24C65.4656 214.187 65.2208 213.125 65.0229 212.047C64.825 210.974 64.6843 209.891 64.5958 208.797C64.5073 207.708 64.4708 206.615 64.4864 205.521C64.5073 204.427 64.575 203.338 64.7 202.25C64.825 201.167 65.002 200.088 65.2364 199.021C65.4656 197.948 65.7468 196.896 66.0802 195.854C66.4187 194.812 66.7989 193.792 67.2364 192.786C67.6687 191.781 68.1531 190.802 68.6843 189.844C69.2156 188.891 69.7937 187.963 70.4135 187.062C71.0385 186.161 71.7 185.297 72.4083 184.463C73.1166 183.63 73.8614 182.828 74.6479 182.068C75.4343 181.307 76.2573 180.588 77.1114 179.906C77.9708 179.229 78.8562 178.594 79.7781 178C80.6948 177.406 81.6427 176.859 82.6166 176.359C83.5854 175.859 84.5802 175.406 85.601 175.005C86.6166 174.604 87.6531 174.255 88.7052 173.953C89.7521 173.651 90.8198 173.406 91.8927 173.208C92.9708 173.01 94.0541 172.87 95.1427 172.781C96.2312 172.687 97.325 172.656 98.4187 172.672C99.5125 172.687 100.601 172.76 101.69 172.885C102.778 173.01 103.856 173.187 104.924 173.417C105.992 173.651 107.049 173.932 108.091 174.266C109.132 174.599 110.153 174.984 111.158 175.422C112.158 175.854 113.137 176.338 114.096 176.87Z" fill="#870000"/>
<path d="M110.997 177.734C111.835 178.198 112.648 178.703 113.434 179.25C114.226 179.797 114.986 180.375 115.716 181C116.445 181.62 117.143 182.271 117.809 182.958C118.476 183.651 119.111 184.37 119.705 185.12C120.304 185.87 120.861 186.646 121.377 187.453C121.898 188.26 122.377 189.089 122.815 189.943C123.252 190.792 123.648 191.667 124.002 192.557C124.351 193.448 124.664 194.354 124.924 195.276C125.19 196.198 125.408 197.13 125.575 198.073C125.747 199.016 125.872 199.964 125.955 200.922C126.033 201.875 126.065 202.833 126.049 203.792C126.033 204.75 125.971 205.703 125.861 206.656C125.752 207.609 125.596 208.552 125.393 209.49C125.19 210.427 124.945 211.354 124.648 212.266C124.356 213.177 124.018 214.073 123.638 214.953C123.257 215.833 122.835 216.693 122.367 217.531C121.903 218.365 121.398 219.182 120.851 219.969C120.309 220.755 119.726 221.516 119.106 222.245C118.486 222.979 117.83 223.677 117.143 224.344C116.455 225.01 115.731 225.641 114.981 226.24C114.231 226.833 113.455 227.391 112.648 227.912C111.841 228.432 111.013 228.912 110.164 229.349C109.309 229.787 108.44 230.182 107.544 230.531C106.653 230.885 105.747 231.193 104.825 231.458C103.903 231.719 102.971 231.938 102.028 232.109C101.085 232.281 100.138 232.406 99.1844 232.484C98.2261 232.563 97.2677 232.594 96.3094 232.578C95.3511 232.563 94.3979 232.5 93.4448 232.391C92.4917 232.281 91.549 232.125 90.6115 231.927C89.674 231.724 88.7521 231.474 87.8354 231.182C86.924 230.891 86.0282 230.552 85.1479 230.172C84.2677 229.792 83.4136 229.365 82.575 228.901C81.7365 228.438 80.924 227.932 80.1323 227.385C79.3459 226.839 78.5854 226.255 77.8563 225.635C77.1271 225.016 76.424 224.365 75.7573 223.672C75.0907 222.984 74.4604 222.266 73.8667 221.516C73.2677 220.766 72.7104 219.984 72.1896 219.182C71.674 218.375 71.1948 217.547 70.7573 216.693C70.3146 215.844 69.924 214.969 69.5698 214.078C69.2157 213.188 68.9084 212.281 68.6479 211.359C68.3823 210.438 68.1636 209.505 67.9917 208.563C67.8198 207.62 67.6948 206.672 67.6167 205.714C67.5386 204.76 67.5073 203.802 67.5229 202.844C67.5386 201.885 67.6011 200.932 67.7104 199.979C67.8198 199.026 67.9761 198.083 68.1792 197.146C68.3823 196.208 68.6271 195.281 68.9188 194.37C69.2157 193.458 69.549 192.563 69.9344 191.682C70.3146 190.802 70.7365 189.943 71.2 189.104C71.6688 188.266 72.174 187.453 72.7157 186.667C73.2625 185.88 73.8459 185.12 74.4657 184.385C75.0854 183.656 75.7417 182.958 76.4292 182.292C77.1167 181.625 77.8354 180.995 78.5854 180.396C79.3407 179.802 80.1167 179.245 80.924 178.724C81.7261 178.203 82.5542 177.724 83.4084 177.287C84.2625 176.849 85.1323 176.453 86.0229 176.099C86.9188 175.75 87.825 175.443 88.7469 175.177C89.6636 174.912 90.5959 174.698 91.5438 174.526C92.4865 174.354 93.4344 174.229 94.3875 174.151C95.3459 174.073 96.299 174.042 97.2573 174.057C98.2157 174.068 99.174 174.13 100.127 174.24C101.075 174.349 102.023 174.505 102.96 174.708C103.898 174.912 104.82 175.162 105.731 175.453C106.648 175.745 107.544 176.083 108.419 176.464C109.299 176.844 110.158 177.266 110.997 177.734Z" fill="#E51A13"/>
<path d="M86.1111 180.385C86.4132 180.552 86.6997 180.75 86.9653 180.974C87.2257 181.198 87.4705 181.448 87.684 181.719C87.8976 181.995 88.0851 182.281 88.2465 182.594C88.4028 182.901 88.533 183.224 88.6268 183.557C88.7205 183.891 88.783 184.229 88.8143 184.578C88.8403 184.922 88.8351 185.271 88.7986 185.615C88.757 185.958 88.684 186.297 88.5799 186.625C88.4705 186.958 88.3351 187.276 88.1632 187.578C87.9965 187.88 87.7986 188.167 87.5747 188.432C87.3507 188.698 87.1007 188.937 86.8299 189.151C86.559 189.37 86.2674 189.557 85.9601 189.714C85.6476 189.875 85.3299 190 84.9965 190.094C84.6632 190.193 84.3195 190.255 83.9757 190.281C83.6268 190.312 83.283 190.302 82.9393 190.266C82.5903 190.224 82.257 190.151 81.9236 190.047C81.5955 189.937 81.2778 189.802 80.9705 189.635C80.6684 189.464 80.3872 189.271 80.1215 189.042C79.8559 188.818 79.6163 188.573 79.3976 188.297C79.184 188.026 78.9965 187.734 78.8351 187.427C78.6788 187.12 78.5486 186.797 78.4549 186.464C78.3611 186.13 78.2986 185.792 78.2674 185.443C78.2413 185.099 78.2465 184.75 78.2882 184.406C78.3247 184.062 78.3976 183.724 78.507 183.391C78.6111 183.062 78.7465 182.745 78.9184 182.443C79.0851 182.135 79.283 181.854 79.507 181.589C79.7309 181.323 79.9809 181.083 80.2518 180.865C80.5226 180.651 80.8143 180.464 81.1215 180.307C81.434 180.146 81.7518 180.021 82.0903 179.922C82.4236 179.828 82.7622 179.766 83.1059 179.74C83.4549 179.708 83.7986 179.714 84.1476 179.755C84.4913 179.797 84.8299 179.87 85.158 179.974C85.4913 180.078 85.809 180.219 86.1111 180.385Z" fill="white"/>
</svg>
