<svg width="300" height="300" viewBox="0 0 300 300" fill="none" xmlns="http://www.w3.org/2000/svg">
<path d="M172.726 243.953C172.726 256.526 162.549 261.031 149.986 261.031C137.429 261.031 127.252 256.526 127.252 243.953L132.934 192.729C132.934 180.161 137.429 181.349 149.986 181.349C162.549 181.349 167.044 180.161 167.044 192.729L172.726 243.953Z" fill="#662113"/>
<path d="M226.195 211.5C186.611 177.552 170.585 128.943 149.986 128.943C129.392 128.943 113.366 177.557 73.7831 211.5C57.1529 225.766 65.0747 234.021 87.8768 232.365C108.2 230.896 127.21 226.281 149.986 226.281C172.767 226.281 191.783 230.896 212.096 232.365C234.903 234.021 242.82 225.76 226.195 211.5Z" fill="#5C913B"/>
<path d="M213.34 198.047C182.924 170.12 165.83 130.13 149.986 130.13C134.158 130.13 117.064 170.12 86.6425 198.047C62.4707 220.229 118.32 225.213 149.986 198.047C181.643 225.219 237.507 220.229 213.34 198.047Z" fill="#3E721D"/>
<path d="M213.34 175.422C182.924 149.339 165.83 111.979 149.986 111.979C134.158 111.979 117.064 149.339 86.6425 175.422C62.4707 196.151 118.32 200.802 149.986 175.422C181.643 200.807 237.507 196.151 213.34 175.422Z" fill="#5C913B"/>
<path d="M199.439 156.901C175.7 136.531 162.356 107.365 149.986 107.365C137.632 107.365 124.283 136.526 100.533 156.901C81.6685 173.078 125.262 176.713 149.986 156.901C174.7 176.708 218.314 173.078 199.439 156.901Z" fill="#3E721D"/>
<path d="M199.439 139.948C175.7 119.583 162.356 90.4167 149.986 90.4167C137.632 90.4167 124.283 119.583 100.533 139.948C81.6685 156.135 125.262 159.766 149.986 139.948C174.7 159.766 218.314 156.135 199.439 139.948Z" fill="#5C913B"/>
<path d="M189.897 124.896C170.736 108.464 159.96 84.9219 149.981 84.9219C140.007 84.9219 129.236 108.464 110.069 124.896C94.8402 137.958 130.028 140.891 149.981 124.896C169.939 140.891 205.132 137.958 189.897 124.896Z" fill="#3E721D"/>
<path d="M189.897 112.141C170.736 95.7084 159.96 72.1667 149.981 72.1667C140.007 72.1667 129.236 95.7084 110.069 112.141C94.8402 125.203 130.028 128.13 149.981 112.141C169.939 128.13 205.132 125.203 189.897 112.141Z" fill="#5C913B"/>
<path d="M180.356 93.3593C165.778 80.8541 157.585 62.9426 149.986 62.9426C142.398 62.9426 134.2 80.8541 119.617 93.3593C108.028 103.302 134.804 105.531 149.986 93.3593C165.169 105.531 191.95 103.302 180.356 93.3593Z" fill="#3E721D"/>
<path d="M180.356 86.5676C165.778 74.0572 157.585 56.1458 149.986 56.1458C142.398 56.1458 134.2 74.0572 119.617 86.5676C108.028 96.5051 134.804 98.7343 149.986 86.5676C165.169 98.7291 191.95 96.4999 180.356 86.5676Z" fill="#5C913B"/>
<path d="M147.023 113.073C147.023 113.693 146.96 114.307 146.84 114.917C146.721 115.521 146.538 116.115 146.304 116.687C146.064 117.26 145.773 117.802 145.429 118.318C145.085 118.833 144.695 119.312 144.257 119.75C143.82 120.187 143.346 120.578 142.83 120.927C142.314 121.271 141.767 121.562 141.2 121.797C140.627 122.036 140.033 122.213 139.429 122.333C138.819 122.458 138.205 122.516 137.585 122.516C136.971 122.516 136.356 122.458 135.747 122.333C135.137 122.213 134.549 122.036 133.976 121.797C133.408 121.562 132.861 121.271 132.346 120.927C131.83 120.578 131.356 120.187 130.918 119.75C130.481 119.312 130.09 118.833 129.747 118.318C129.403 117.802 129.111 117.26 128.872 116.687C128.637 116.115 128.455 115.521 128.335 114.917C128.215 114.307 128.153 113.693 128.153 113.073C128.153 112.453 128.215 111.838 128.335 111.229C128.455 110.62 128.637 110.031 128.872 109.458C129.111 108.885 129.403 108.344 129.747 107.828C130.09 107.312 130.481 106.833 130.918 106.396C131.356 105.958 131.83 105.562 132.346 105.219C132.861 104.875 133.408 104.583 133.976 104.349C134.549 104.109 135.137 103.932 135.747 103.812C136.356 103.687 136.971 103.63 137.585 103.63C138.205 103.63 138.819 103.687 139.429 103.812C140.033 103.932 140.627 104.109 141.2 104.349C141.767 104.583 142.314 104.875 142.83 105.219C143.346 105.562 143.82 105.958 144.257 106.396C144.695 106.833 145.085 107.312 145.429 107.828C145.773 108.344 146.064 108.885 146.304 109.458C146.538 110.031 146.721 110.62 146.84 111.229C146.96 111.838 147.023 112.453 147.023 113.073Z" fill="#FFCC4D"/>
<path d="M172.174 194.656C172.174 195.484 172.096 196.302 171.934 197.115C171.773 197.927 171.533 198.714 171.216 199.474C170.903 200.24 170.513 200.964 170.054 201.651C169.596 202.339 169.075 202.974 168.492 203.563C167.908 204.146 167.273 204.667 166.585 205.125C165.898 205.589 165.174 205.974 164.408 206.292C163.648 206.609 162.861 206.844 162.049 207.005C161.242 207.167 160.424 207.25 159.596 207.25C158.773 207.25 157.955 207.167 157.143 207.005C156.335 206.844 155.549 206.609 154.783 206.292C154.023 205.974 153.299 205.589 152.611 205.125C151.924 204.667 151.289 204.146 150.705 203.563C150.122 202.974 149.601 202.339 149.143 201.651C148.679 200.964 148.294 200.24 147.976 199.474C147.664 198.714 147.424 197.927 147.263 197.115C147.101 196.302 147.023 195.484 147.023 194.656C147.023 193.828 147.101 193.01 147.263 192.198C147.424 191.391 147.664 190.604 147.976 189.839C148.294 189.073 148.679 188.349 149.143 187.661C149.601 186.974 150.122 186.339 150.705 185.755C151.289 185.167 151.924 184.646 152.611 184.188C153.299 183.729 154.023 183.339 154.783 183.026C155.549 182.708 156.335 182.469 157.143 182.307C157.955 182.146 158.773 182.062 159.596 182.062C160.424 182.062 161.242 182.146 162.049 182.307C162.861 182.469 163.648 182.708 164.408 183.026C165.174 183.339 165.898 183.729 166.585 184.188C167.273 184.646 167.908 185.167 168.492 185.755C169.075 186.339 169.596 186.974 170.054 187.661C170.513 188.349 170.903 189.073 171.216 189.839C171.533 190.604 171.773 191.391 171.934 192.198C172.096 193.01 172.174 193.828 172.174 194.656Z" fill="#FFCC4D"/>
<path d="M191.038 134.844C191.038 135.88 190.939 136.901 190.736 137.917C190.538 138.927 190.236 139.912 189.846 140.87C189.45 141.823 188.965 142.729 188.393 143.589C187.814 144.448 187.163 145.245 186.434 145.974C185.705 146.703 184.913 147.359 184.054 147.932C183.195 148.505 182.288 148.99 181.335 149.385C180.382 149.781 179.398 150.078 178.387 150.281C177.372 150.484 176.351 150.583 175.32 150.583C174.288 150.583 173.262 150.484 172.252 150.281C171.242 150.078 170.257 149.781 169.304 149.385C168.351 148.99 167.445 148.505 166.585 147.932C165.726 147.359 164.934 146.703 164.2 145.974C163.471 145.245 162.82 144.448 162.247 143.589C161.674 142.729 161.189 141.823 160.794 140.87C160.398 139.912 160.101 138.927 159.898 137.917C159.7 136.901 159.596 135.88 159.596 134.844C159.596 133.813 159.7 132.787 159.898 131.776C160.101 130.76 160.398 129.776 160.794 128.823C161.189 127.865 161.674 126.958 162.247 126.099C162.82 125.24 163.471 124.443 164.2 123.714C164.934 122.984 165.726 122.333 166.585 121.755C167.445 121.182 168.351 120.698 169.304 120.302C170.257 119.906 171.242 119.609 172.252 119.406C173.262 119.203 174.288 119.104 175.32 119.104C176.351 119.104 177.372 119.203 178.387 119.406C179.398 119.609 180.382 119.906 181.335 120.302C182.288 120.698 183.195 121.182 184.054 121.755C184.913 122.333 185.705 122.984 186.434 123.714C187.163 124.443 187.814 125.24 188.393 126.099C188.965 126.958 189.45 127.865 189.846 128.823C190.236 129.776 190.538 130.76 190.736 131.776C190.939 132.787 191.038 133.813 191.038 134.844Z" fill="#DD2E44"/>
<path d="M109.288 200.953C109.288 201.781 109.21 202.599 109.049 203.411C108.887 204.219 108.648 205.01 108.33 205.771C108.017 206.536 107.627 207.26 107.168 207.948C106.71 208.635 106.189 209.271 105.606 209.859C105.023 210.443 104.387 210.964 103.7 211.422C103.012 211.88 102.288 212.271 101.528 212.589C100.762 212.901 99.9757 213.141 99.1685 213.302C98.356 213.464 97.5382 213.547 96.7101 213.547C95.8872 213.547 95.0695 213.464 94.257 213.302C93.4497 213.141 92.6632 212.901 91.8976 212.589C91.1372 212.271 90.4132 211.88 89.7257 211.422C89.0382 210.964 88.4028 210.443 87.8195 209.859C87.2362 209.271 86.7153 208.635 86.257 207.948C85.7935 207.26 85.408 206.536 85.0903 205.771C84.7778 205.01 84.5382 204.219 84.3768 203.411C84.2153 202.599 84.1372 201.781 84.1372 200.953C84.1372 200.125 84.2153 199.307 84.3768 198.495C84.5382 197.687 84.7778 196.896 85.0903 196.135C85.408 195.37 85.7935 194.646 86.257 193.958C86.7153 193.271 87.2362 192.635 87.8195 192.047C88.4028 191.464 89.0382 190.943 89.7257 190.484C90.4132 190.026 91.1372 189.635 91.8976 189.318C92.6632 189.005 93.4497 188.766 94.257 188.604C95.0695 188.443 95.8872 188.359 96.7101 188.359C97.5382 188.359 98.356 188.443 99.1685 188.604C99.9757 188.766 100.762 189.005 101.528 189.318C102.288 189.635 103.012 190.026 103.7 190.484C104.387 190.943 105.023 191.464 105.606 192.047C106.189 192.635 106.71 193.271 107.168 193.958C107.627 194.646 108.017 195.37 108.33 196.135C108.648 196.896 108.887 197.687 109.049 198.495C109.21 199.307 109.288 200.125 109.288 200.953Z" fill="#DD2E44"/>
<path d="M134.445 156.88C134.445 157.708 134.361 158.526 134.2 159.338C134.039 160.146 133.804 160.937 133.486 161.698C133.169 162.463 132.783 163.187 132.325 163.875C131.867 164.562 131.346 165.198 130.757 165.786C130.174 166.37 129.539 166.891 128.856 167.349C128.169 167.812 127.445 168.198 126.679 168.516C125.919 168.828 125.132 169.068 124.32 169.229C123.513 169.391 122.695 169.474 121.867 169.474C121.039 169.474 120.221 169.391 119.414 169.229C118.601 169.068 117.815 168.828 117.054 168.516C116.289 168.198 115.565 167.812 114.877 167.349C114.195 166.891 113.559 166.37 112.971 165.786C112.388 165.198 111.867 164.562 111.408 163.875C110.95 163.187 110.565 162.463 110.247 161.698C109.929 160.937 109.695 160.146 109.533 159.338C109.372 158.526 109.289 157.708 109.289 156.88C109.289 156.052 109.372 155.234 109.533 154.422C109.695 153.615 109.929 152.828 110.247 152.062C110.565 151.297 110.95 150.573 111.408 149.885C111.867 149.198 112.388 148.562 112.971 147.979C113.559 147.391 114.195 146.87 114.877 146.411C115.565 145.953 116.289 145.562 117.054 145.245C117.815 144.932 118.601 144.693 119.414 144.531C120.221 144.37 121.039 144.286 121.867 144.286C122.695 144.286 123.513 144.37 124.32 144.531C125.132 144.693 125.919 144.932 126.679 145.245C127.445 145.562 128.169 145.953 128.856 146.411C129.539 146.87 130.174 147.391 130.757 147.979C131.346 148.562 131.867 149.198 132.325 149.885C132.783 150.573 133.169 151.297 133.486 152.062C133.804 152.828 134.039 153.615 134.2 154.422C134.361 155.234 134.445 156.052 134.445 156.88Z" fill="#A6D388"/>
<path d="M209.903 182.062C209.903 182.891 209.825 183.708 209.663 184.521C209.502 185.333 209.262 186.12 208.95 186.885C208.632 187.646 208.247 188.375 207.788 189.062C207.325 189.75 206.804 190.385 206.221 190.969C205.637 191.552 205.002 192.078 204.314 192.536C203.627 192.995 202.903 193.38 202.143 193.698C201.377 194.016 200.59 194.255 199.783 194.417C198.971 194.578 198.153 194.656 197.33 194.656C196.502 194.656 195.684 194.578 194.877 194.417C194.064 194.255 193.278 194.016 192.518 193.698C191.752 193.38 191.028 192.995 190.34 192.536C189.653 192.078 189.018 191.552 188.434 190.969C187.851 190.385 187.33 189.75 186.872 189.062C186.413 188.375 186.023 187.646 185.71 186.885C185.393 186.12 185.153 185.333 184.992 184.521C184.83 183.708 184.752 182.891 184.752 182.062C184.752 181.24 184.83 180.417 184.992 179.609C185.153 178.797 185.393 178.01 185.71 177.245C186.023 176.484 186.413 175.755 186.872 175.068C187.33 174.38 187.851 173.745 188.434 173.161C189.018 172.578 189.653 172.052 190.34 171.594C191.028 171.135 191.752 170.75 192.518 170.432C193.278 170.115 194.064 169.875 194.877 169.713C195.684 169.552 196.502 169.474 197.33 169.474C198.153 169.474 198.971 169.552 199.783 169.713C200.59 169.875 201.377 170.115 202.143 170.432C202.903 170.75 203.627 171.135 204.314 171.594C205.002 172.052 205.637 172.578 206.221 173.161C206.804 173.745 207.325 174.38 207.788 175.068C208.247 175.755 208.632 176.484 208.95 177.245C209.262 178.01 209.502 178.797 209.663 179.609C209.825 180.417 209.903 181.24 209.903 182.062Z" fill="#A6D388"/>
<path d="M155.695 47.8282C156.59 49.5574 158.913 51.2813 160.83 51.6615L169.502 53.3543C171.419 53.7345 171.872 55.1824 170.502 56.5782L164.32 62.9011C162.955 64.297 162.023 67.0365 162.268 68.974L163.34 77.7501C163.58 79.698 162.34 80.573 160.585 79.7032L152.679 75.7709C150.924 74.9011 148.038 74.8595 146.268 75.6876L138.252 79.4272C136.481 80.2449 135.262 79.3386 135.549 77.4011L136.84 68.6459C137.122 66.7136 136.268 63.9584 134.939 62.5209L128.908 56.0574C127.575 54.6251 128.059 53.1772 129.991 52.8595L138.7 51.3855C140.632 51.0626 142.981 49.3959 143.934 47.6824L148.215 39.9428C149.163 38.2293 150.695 38.2501 151.59 39.9793L155.695 47.8282Z" fill="#FFAC33"/>
</svg>
