<svg width="300" height="300" viewBox="0 0 300 300" fill="none" xmlns="http://www.w3.org/2000/svg">
<mask id="mask0_989_2198" style="mask-type:luminance" maskUnits="userSpaceOnUse" x="50" y="130" width="200" height="140">
<path d="M50.7466 130.667H249.413V269.938H50.7466V130.667Z" fill="white"/>
</mask>
<g mask="url(#mask0_989_2198)">
<path d="M248.668 235.865L149.945 269.787L51.2153 235.86V142.188L248.668 131.146V235.865Z" fill="#BE6421"/>
</g>
<path d="M190.476 255.859L214.502 247.604V133.052L190.476 134.396V255.859Z" fill="#EE2630"/>
<path d="M81.7935 246.37L105.825 254.625V139.13L81.7935 140.479V246.37Z" fill="#EE2630"/>
<mask id="mask1_989_2198" style="mask-type:luminance" maskUnits="userSpaceOnUse" x="44" y="120" width="212" height="59">
<path d="M44.4551 120H255.346V178.667H44.4551V120Z" fill="white"/>
</mask>
<g mask="url(#mask1_989_2198)">
<path d="M255.393 153.651L149.945 178.599L44.4915 153.651V120.641H255.393V153.651Z" fill="#F6832B"/>
</g>
<path d="M217.731 162.802L193.705 168.49V121.99H217.731V162.802Z" fill="#EE2630"/>
<path d="M77.4915 161.458L101.517 167.146V120.641H77.4915V161.458Z" fill="#EE2630"/>
<mask id="mask2_989_2198" style="mask-type:luminance" maskUnits="userSpaceOnUse" x="44" y="102" width="212" height="41">
<path d="M44.4551 102.667H255.346V142.667H44.4551V102.667Z" fill="white"/>
</mask>
<g mask="url(#mask2_989_2198)">
<path d="M44.4915 120.656L152.096 103.427L255.393 120.656L150.658 142.198L44.4915 120.656Z" fill="#FAC08C"/>
</g>
<path d="M77.4915 127.354L149.945 111.823H158.012L101.517 133.052L77.4915 127.354Z" fill="#EE2630"/>
<path d="M217.731 128.401L145.278 112.193H137.21L193.705 133.427L217.731 128.401Z" fill="#EE2630"/>
<path d="M141.617 110.187C141.617 110.187 84.304 95.4478 57.9395 106.599L69.778 113.812C69.778 113.812 67.1113 116.01 61.7207 124.151C61.7207 124.151 110.575 117.312 143.117 113.292L141.617 110.187Z" fill="#D91E25"/>
<path d="M156.434 109.094C156.434 109.094 213.752 94.349 240.111 105.505L228.278 112.719C228.278 112.719 230.939 114.922 236.335 123.057C236.335 123.057 187.481 116.214 154.939 112.193L156.434 109.094Z" fill="#D91E25"/>
<mask id="mask3_989_2198" style="mask-type:luminance" maskUnits="userSpaceOnUse" x="110" y="30" width="36" height="77">
<path d="M110.747 30.0625H145.413V106.667H110.747V30.0625Z" fill="white"/>
</mask>
<g mask="url(#mask3_989_2198)">
<path d="M117.122 30.1301C117.122 30.1301 139.913 33.3645 145.095 106.599C145.095 106.599 93.4653 56.5155 117.122 30.1301Z" fill="#D91E25"/>
</g>
<mask id="mask4_989_2198" style="mask-type:luminance" maskUnits="userSpaceOnUse" x="57" y="30" width="89" height="85">
<path d="M57.4133 30.0625H145.413V114.667H57.4133V30.0625Z" fill="white"/>
</mask>
<g mask="url(#mask4_989_2198)">
<path d="M138.106 113.812L145.096 106.599C145.096 106.599 111.205 71.9687 117.122 30.1301C117.122 30.1301 72.8092 42.5155 57.9395 75.901C57.9395 75.901 62.2415 91.4062 138.106 113.812Z" fill="#EE2630"/>
</g>
<path d="M145.096 106.599C145.096 106.599 138.096 99.4426 131.012 87.7135C131.017 87.7135 131.023 87.7135 131.023 87.7083C138.106 99.4322 145.096 106.599 145.096 106.599Z" fill="#D91F25"/>
<path d="M138.106 113.813C62.2415 91.4063 57.9395 75.901 57.9395 75.901C57.9499 75.8802 57.9551 75.8646 57.9655 75.849C57.9655 75.8437 57.9655 75.8385 57.9655 75.8385C59.0072 73.5052 60.2103 71.2865 61.5124 69.1562C71.1478 77.2656 90.9395 91.2292 112.82 91.2292C118.778 91.2292 124.903 90.1927 131.012 87.7135C138.096 99.4427 145.096 106.599 145.096 106.599L138.106 113.813Z" fill="#EE222C"/>
<mask id="mask5_989_2198" style="mask-type:luminance" maskUnits="userSpaceOnUse" x="153" y="30" width="37" height="77">
<path d="M153.413 30.0625H189.413V106.667H153.413V30.0625Z" fill="white"/>
</mask>
<g mask="url(#mask5_989_2198)">
<path d="M181.924 30.1301C181.924 30.1301 159.132 33.3645 153.945 106.599C153.945 106.599 205.585 56.5155 181.924 30.1301Z" fill="#D91E25"/>
</g>
<mask id="mask6_989_2198" style="mask-type:luminance" maskUnits="userSpaceOnUse" x="153" y="30" width="89" height="85">
<path d="M153.413 30.0625H241.413V114.667H153.413V30.0625Z" fill="white"/>
</mask>
<g mask="url(#mask6_989_2198)">
<path d="M160.939 113.812L153.945 106.599C153.945 106.599 187.84 71.9687 181.924 30.1301C181.924 30.1301 226.236 42.5155 241.106 75.901C241.106 75.901 236.799 91.4062 160.939 113.812Z" fill="#EE2630"/>
</g>
<path d="M153.945 106.599C153.945 106.599 160.939 99.4322 168.023 87.7083C168.023 87.7135 168.028 87.7135 168.033 87.7135C160.95 99.4426 153.945 106.599 153.945 106.599Z" fill="#D91F25"/>
<path d="M160.939 113.813L153.945 106.599C153.945 106.599 160.95 99.4427 168.033 87.7135C174.137 90.1927 180.262 91.2292 186.226 91.2292C208.106 91.2292 227.898 77.2656 237.533 69.1562C238.846 71.3073 240.054 73.5469 241.106 75.901C241.106 75.901 238.226 86.2552 195.783 102.266C186.752 105.672 175.945 109.333 162.986 113.203C162.309 113.406 161.622 113.604 160.939 113.813Z" fill="#EE222C"/>
<path d="M137.21 114.557C137.21 114.557 147.184 119.234 162.314 113.438C162.314 113.438 160.622 103.771 148.247 104.042C148.247 104.042 136.851 105.703 137.21 114.557Z" fill="#EE2630"/>
</svg>
