<svg width="300" height="300" viewBox="0 0 300 300" fill="none" xmlns="http://www.w3.org/2000/svg">
<mask id="mask0_989_2155" style="mask-type:luminance" maskUnits="userSpaceOnUse" x="44" y="64" width="213" height="211">
<path d="M44.0801 64H256.08V274.245H44.0801V64Z" fill="white"/>
</mask>
<g mask="url(#mask0_989_2155)">
<path d="M255.044 169.443C255.044 171.156 255.002 172.875 254.919 174.589C254.835 176.297 254.71 178.01 254.538 179.714C254.372 181.422 254.163 183.125 253.908 184.823C253.658 186.516 253.361 188.208 253.028 189.891C252.695 191.573 252.315 193.245 251.898 194.906C251.481 196.573 251.023 198.224 250.523 199.865C250.028 201.505 249.486 203.135 248.908 204.75C248.33 206.365 247.71 207.964 247.054 209.547C246.398 211.135 245.7 212.703 244.966 214.25C244.231 215.802 243.455 217.333 242.648 218.849C241.835 220.359 240.992 221.849 240.106 223.323C239.226 224.792 238.304 226.24 237.351 227.667C236.393 229.094 235.408 230.495 234.382 231.875C233.356 233.25 232.304 234.604 231.21 235.927C230.122 237.255 229.002 238.552 227.846 239.823C226.69 241.094 225.507 242.339 224.294 243.547C223.075 244.76 221.83 245.943 220.559 247.094C219.288 248.25 217.986 249.37 216.658 250.458C215.33 251.542 213.976 252.599 212.596 253.62C211.216 254.641 209.809 255.63 208.382 256.583C206.95 257.536 205.502 258.453 204.028 259.333C202.554 260.214 201.059 261.063 199.544 261.87C198.028 262.677 196.492 263.448 194.94 264.182C193.387 264.917 191.815 265.609 190.226 266.266C188.637 266.922 187.038 267.542 185.419 268.12C183.799 268.698 182.169 269.234 180.523 269.734C178.882 270.229 177.226 270.688 175.559 271.104C173.893 271.521 172.216 271.896 170.528 272.229C168.846 272.568 167.153 272.859 165.45 273.109C163.752 273.359 162.049 273.573 160.335 273.74C158.627 273.906 156.913 274.036 155.2 274.12C153.481 274.203 151.762 274.245 150.044 274.245C148.325 274.245 146.611 274.203 144.893 274.12C143.179 274.036 141.466 273.906 139.752 273.74C138.044 273.573 136.341 273.359 134.637 273.109C132.94 272.859 131.247 272.568 129.559 272.229C127.877 271.896 126.2 271.521 124.533 271.104C122.867 270.688 121.21 270.229 119.565 269.734C117.919 269.234 116.288 268.698 114.674 268.12C113.054 267.542 111.45 266.922 109.861 266.266C108.278 265.609 106.705 264.917 105.153 264.182C103.601 263.448 102.065 262.677 100.549 261.87C99.0333 261.063 97.5385 260.214 96.0645 259.333C94.5906 258.453 93.1375 257.536 91.7104 256.583C90.2833 255.63 88.877 254.641 87.4968 253.62C86.1166 252.599 84.7625 251.542 83.4343 250.458C82.1062 249.37 80.8041 248.25 79.5333 247.094C78.2572 245.943 77.0125 244.76 75.7989 243.547C74.5854 242.339 73.3979 241.094 72.2468 239.823C71.0906 238.552 69.9708 237.255 68.877 235.927C67.7885 234.604 66.7312 233.25 65.7104 231.875C64.6843 230.495 63.6947 229.094 62.7416 227.667C61.7885 226.24 60.8666 224.792 59.9812 223.323C59.101 221.849 58.252 220.359 57.4447 218.849C56.6322 217.333 55.8614 215.802 55.127 214.25C54.3927 212.703 53.6947 211.135 53.0385 209.547C52.3822 207.964 51.7625 206.365 51.1843 204.75C50.6062 203.135 50.0645 201.505 49.5645 199.865C49.0697 198.224 48.6114 196.573 48.1895 194.906C47.7729 193.245 47.3979 191.573 47.0645 189.891C46.726 188.208 46.4343 186.516 46.1791 184.823C45.9291 183.125 45.7208 181.422 45.5489 179.714C45.3822 178.01 45.2572 176.297 45.1739 174.589C45.0854 172.875 45.0437 171.156 45.0437 169.443C45.0437 167.729 45.0854 166.016 45.1739 164.302C45.2572 162.589 45.3822 160.88 45.5489 159.172C45.7208 157.464 45.9291 155.76 46.1791 154.068C46.4343 152.37 46.726 150.682 47.0645 149C47.3979 147.318 47.7729 145.641 48.1895 143.979C48.6114 142.318 49.0697 140.661 49.5645 139.021C50.0645 137.38 50.6062 135.75 51.1843 134.135C51.7625 132.521 52.3822 130.922 53.0385 129.339C53.6947 127.755 54.3927 126.188 55.127 124.635C55.8614 123.083 56.6322 121.552 57.4447 120.042C58.252 118.526 59.101 117.036 59.9812 115.568C60.8666 114.094 61.7885 112.646 62.7416 111.219C63.6947 109.792 64.6843 108.391 65.7104 107.016C66.7312 105.635 67.7885 104.286 68.877 102.958C69.9708 101.635 71.0906 100.333 72.2468 99.0625C73.3979 97.7917 74.5854 96.5521 75.7989 95.3385C77.0125 94.125 78.2572 92.9427 79.5333 91.7917C80.8041 90.6406 82.1062 89.5208 83.4343 88.4323C84.7625 87.3437 86.1166 86.2865 87.4968 85.2656C88.877 84.2448 90.2833 83.2552 91.7104 82.3073C93.1375 81.3542 94.5906 80.4323 96.0645 79.5521C97.5385 78.6719 99.0333 77.8281 100.549 77.0156C102.065 76.2083 103.601 75.4375 105.153 74.7031C106.705 73.974 108.278 73.276 109.861 72.6198C111.45 71.9635 113.054 71.349 114.674 70.7708C116.288 70.1927 117.919 69.651 119.565 69.1563C121.21 68.6563 122.867 68.1979 124.533 67.7813C126.2 67.3646 127.877 66.9896 129.559 66.6563C131.247 66.3229 132.94 66.0313 134.637 65.776C136.341 65.526 138.044 65.3177 139.752 65.1458C141.466 64.9792 143.179 64.8542 144.893 64.7708C146.611 64.6823 148.325 64.6406 150.044 64.6406C151.762 64.6406 153.481 64.6823 155.2 64.7708C156.913 64.8542 158.627 64.9792 160.335 65.1458C162.049 65.3177 163.752 65.526 165.45 65.776C167.153 66.0313 168.846 66.3229 170.528 66.6563C172.216 66.9896 173.893 67.3646 175.559 67.7813C177.226 68.1979 178.882 68.6563 180.523 69.1563C182.169 69.651 183.799 70.1927 185.419 70.7708C187.038 71.349 188.637 71.9635 190.226 72.6198C191.815 73.276 193.387 73.974 194.94 74.7031C196.492 75.4375 198.028 76.2083 199.544 77.0156C201.059 77.8281 202.554 78.6719 204.028 79.5521C205.502 80.4323 206.95 81.3542 208.382 82.3073C209.809 83.2552 211.216 84.2448 212.596 85.2656C213.976 86.2865 215.33 87.3437 216.658 88.4323C217.986 89.5208 219.288 90.6406 220.559 91.7917C221.83 92.9427 223.075 94.125 224.294 95.3385C225.507 96.5521 226.69 97.7917 227.846 99.0625C229.002 100.333 230.122 101.635 231.21 102.958C232.304 104.286 233.356 105.635 234.382 107.016C235.408 108.391 236.393 109.792 237.351 111.219C238.304 112.646 239.226 114.094 240.106 115.568C240.992 117.036 241.835 118.526 242.648 120.042C243.455 121.552 244.231 123.083 244.966 124.635C245.7 126.188 246.398 127.755 247.054 129.339C247.71 130.922 248.33 132.521 248.908 134.135C249.486 135.75 250.028 137.38 250.523 139.021C251.023 140.661 251.481 142.318 251.898 143.979C252.315 145.641 252.695 147.318 253.028 149C253.361 150.682 253.658 152.37 253.908 154.068C254.163 155.76 254.372 157.464 254.538 159.172C254.71 160.88 254.835 162.589 254.919 164.302C255.002 166.016 255.044 167.729 255.044 169.443Z" fill="#F3F3F3"/>
</g>
<mask id="mask1_989_2155" style="mask-type:luminance" maskUnits="userSpaceOnUse" x="140" y="64" width="117" height="211">
<path d="M140.08 64H256.08V274.245H140.08V64Z" fill="white"/>
</mask>
<g mask="url(#mask1_989_2155)">
<path d="M150.044 64.6406C147.091 64.6406 144.179 64.7969 141.294 65.0365C195.179 69.4792 237.544 114.516 237.544 169.443C237.544 224.375 195.179 269.411 141.294 273.854C144.179 274.089 147.091 274.245 150.044 274.245C208.033 274.245 255.044 227.323 255.044 169.443C255.044 111.568 208.033 64.6406 150.044 64.6406Z" fill="#E8E8E8"/>
</g>
<path d="M202.543 169.443C202.543 170.016 202.491 170.583 202.377 171.146C202.267 171.708 202.101 172.255 201.877 172.786C201.658 173.318 201.387 173.818 201.069 174.297C200.752 174.771 200.387 175.213 199.981 175.62C199.575 176.026 199.132 176.385 198.658 176.703C198.179 177.026 197.674 177.292 197.142 177.51C196.611 177.729 196.064 177.896 195.502 178.01C194.939 178.12 194.372 178.177 193.793 178.177C193.221 178.177 192.653 178.12 192.09 178.01C191.523 177.896 190.976 177.729 190.444 177.51C189.918 177.292 189.413 177.026 188.934 176.703C188.455 176.385 188.012 176.026 187.606 175.62C187.2 175.213 186.84 174.771 186.517 174.297C186.2 173.818 185.929 173.318 185.71 172.786C185.491 172.255 185.325 171.708 185.215 171.146C185.101 170.583 185.043 170.016 185.043 169.443C185.043 168.87 185.101 168.302 185.215 167.74C185.325 167.177 185.491 166.63 185.71 166.099C185.929 165.573 186.2 165.068 186.517 164.594C186.84 164.115 187.2 163.672 187.606 163.266C188.012 162.865 188.455 162.5 188.934 162.182C189.413 161.865 189.918 161.594 190.444 161.375C190.976 161.156 191.523 160.99 192.09 160.88C192.653 160.766 193.221 160.708 193.793 160.708C194.372 160.708 194.939 160.766 195.502 160.88C196.064 160.99 196.611 161.156 197.142 161.375C197.674 161.594 198.179 161.865 198.658 162.182C199.132 162.5 199.575 162.865 199.981 163.266C200.387 163.672 200.752 164.115 201.069 164.594C201.387 165.068 201.658 165.573 201.877 166.099C202.101 166.63 202.267 167.177 202.377 167.74C202.491 168.302 202.543 168.87 202.543 169.443Z" fill="#373737"/>
<path d="M115.043 169.443C115.043 170.016 114.991 170.583 114.877 171.146C114.767 171.708 114.601 172.255 114.377 172.786C114.158 173.318 113.887 173.818 113.569 174.297C113.252 174.771 112.887 175.213 112.481 175.62C112.075 176.026 111.632 176.385 111.158 176.703C110.679 177.026 110.174 177.292 109.642 177.51C109.111 177.729 108.564 177.896 108.002 178.01C107.439 178.12 106.872 178.177 106.293 178.177C105.721 178.177 105.153 178.12 104.59 178.01C104.023 177.896 103.476 177.729 102.944 177.51C102.413 177.292 101.913 177.026 101.434 176.703C100.955 176.385 100.512 176.026 100.106 175.62C99.6997 175.213 99.3403 174.771 99.0174 174.297C98.6997 173.818 98.4289 173.318 98.2101 172.786C97.9914 172.255 97.8247 171.708 97.7153 171.146C97.6007 170.583 97.5435 170.016 97.5435 169.443C97.5435 168.87 97.6007 168.302 97.7153 167.74C97.8247 167.177 97.9914 166.63 98.2101 166.099C98.4289 165.573 98.6997 165.068 99.0174 164.594C99.3403 164.115 99.6997 163.672 100.106 163.266C100.512 162.865 100.955 162.5 101.434 162.182C101.913 161.865 102.413 161.594 102.944 161.375C103.476 161.156 104.023 160.99 104.59 160.88C105.153 160.766 105.721 160.708 106.293 160.708C106.872 160.708 107.439 160.766 108.002 160.88C108.564 160.99 109.111 161.156 109.642 161.375C110.174 161.594 110.679 161.865 111.158 162.182C111.632 162.5 112.075 162.865 112.481 163.266C112.887 163.672 113.252 164.115 113.569 164.594C113.887 165.068 114.158 165.573 114.377 166.099C114.601 166.63 114.767 167.177 114.877 167.74C114.991 168.302 115.043 168.87 115.043 169.443Z" fill="#373737"/>
<path d="M138.955 213.042C148.241 213.057 155.616 204.922 154.247 195.755C154.205 195.505 154.174 195.266 154.122 195.016C154.106 194.932 154.075 194.776 154.033 194.583C152.174 185.458 142.403 180.245 133.663 183.531C108.564 192.974 88.5852 204.057 66.8977 212.901L138.945 213.057L138.955 213.042Z" fill="#F7941D"/>
<path d="M163.33 252.417C163.33 252.995 163.221 253.552 162.997 254.089C162.778 254.62 162.46 255.094 162.054 255.5C161.643 255.912 161.169 256.224 160.637 256.448C160.101 256.667 159.544 256.776 158.965 256.776C158.382 256.776 157.825 256.667 157.294 256.448C156.757 256.224 156.283 255.912 155.877 255.5C155.465 255.094 155.148 254.62 154.929 254.089C154.705 253.552 154.596 252.995 154.596 252.417C154.596 251.839 154.705 251.281 154.929 250.75C155.148 250.214 155.465 249.745 155.877 249.333C156.283 248.927 156.757 248.609 157.294 248.391C157.825 248.167 158.382 248.057 158.965 248.057C159.544 248.057 160.101 248.167 160.637 248.391C161.169 248.609 161.643 248.927 162.054 249.333C162.46 249.745 162.778 250.214 162.997 250.75C163.221 251.281 163.33 251.839 163.33 252.417Z" fill="#373737"/>
<path d="M209.309 228.958C209.309 229.536 209.194 230.094 208.976 230.63C208.752 231.167 208.434 231.641 208.023 232.047C207.611 232.458 207.137 232.776 206.601 232.995C206.064 233.219 205.507 233.328 204.924 233.328C204.346 233.328 203.783 233.219 203.247 232.995C202.71 232.776 202.236 232.458 201.825 232.047C201.413 231.641 201.101 231.167 200.877 230.63C200.653 230.094 200.543 229.536 200.543 228.958C200.543 228.375 200.653 227.818 200.877 227.281C201.101 226.745 201.413 226.276 201.825 225.865C202.236 225.453 202.71 225.135 203.247 224.917C203.783 224.693 204.346 224.583 204.924 224.583C205.507 224.583 206.064 224.693 206.601 224.917C207.137 225.135 207.611 225.453 208.023 225.865C208.434 226.276 208.752 226.745 208.976 227.281C209.194 227.818 209.309 228.375 209.309 228.958Z" fill="#373737"/>
<path d="M217.314 213.151C217.314 213.734 217.205 214.292 216.981 214.828C216.757 215.365 216.445 215.833 216.033 216.245C215.622 216.656 215.148 216.974 214.611 217.193C214.075 217.417 213.512 217.526 212.934 217.526C212.351 217.526 211.794 217.417 211.257 217.193C210.721 216.974 210.247 216.656 209.835 216.245C209.424 215.833 209.106 215.365 208.887 214.828C208.663 214.292 208.554 213.734 208.554 213.151C208.554 212.573 208.663 212.016 208.887 211.479C209.106 210.943 209.424 210.469 209.835 210.063C210.247 209.651 210.721 209.333 211.257 209.109C211.794 208.891 212.351 208.781 212.934 208.781C213.512 208.781 214.075 208.891 214.611 209.109C215.148 209.333 215.622 209.651 216.033 210.063C216.445 210.469 216.757 210.943 216.981 211.479C217.205 212.016 217.314 212.573 217.314 213.151Z" fill="#373737"/>
<path d="M196.57 241.573C196.57 242.156 196.455 242.714 196.236 243.25C196.012 243.786 195.695 244.255 195.283 244.667C194.872 245.078 194.398 245.396 193.861 245.615C193.325 245.839 192.767 245.948 192.184 245.948C191.606 245.948 191.044 245.839 190.507 245.615C189.971 245.396 189.497 245.078 189.085 244.667C188.674 244.255 188.361 243.786 188.137 243.25C187.913 242.714 187.804 242.156 187.804 241.573C187.804 240.995 187.913 240.438 188.137 239.901C188.361 239.365 188.674 238.891 189.085 238.484C189.497 238.073 189.971 237.755 190.507 237.531C191.044 237.312 191.606 237.203 192.184 237.203C192.767 237.203 193.325 237.312 193.861 237.531C194.398 237.755 194.872 238.073 195.283 238.484C195.695 238.891 196.012 239.365 196.236 239.901C196.455 240.438 196.57 240.995 196.57 241.573Z" fill="#373737"/>
<path d="M180.705 249.635C180.705 250.214 180.596 250.771 180.372 251.307C180.153 251.839 179.835 252.313 179.424 252.719C179.018 253.13 178.544 253.443 178.007 253.667C177.476 253.885 176.919 253.995 176.335 253.995C175.757 253.995 175.2 253.885 174.663 253.667C174.132 253.443 173.658 253.13 173.247 252.719C172.84 252.313 172.523 251.839 172.304 251.307C172.08 250.771 171.971 250.214 171.971 249.635C171.971 249.057 172.08 248.505 172.304 247.969C172.523 247.432 172.84 246.964 173.247 246.552C173.658 246.146 174.132 245.828 174.663 245.609C175.2 245.391 175.757 245.276 176.335 245.276C176.919 245.276 177.476 245.391 178.007 245.609C178.544 245.828 179.018 246.146 179.424 246.552C179.835 246.964 180.153 247.432 180.372 247.969C180.596 248.505 180.705 249.057 180.705 249.635Z" fill="#373737"/>
<path d="M220.033 195.698C220.033 196.276 219.918 196.833 219.7 197.37C219.476 197.901 219.163 198.375 218.752 198.781C218.34 199.193 217.872 199.505 217.335 199.729C216.799 199.948 216.241 200.057 215.663 200.057C215.085 200.057 214.528 199.948 213.991 199.729C213.455 199.505 212.986 199.193 212.575 198.781C212.163 198.375 211.851 197.901 211.627 197.37C211.408 196.833 211.293 196.276 211.293 195.698C211.293 195.12 211.408 194.568 211.627 194.031C211.851 193.495 212.163 193.026 212.575 192.615C212.986 192.208 213.455 191.891 213.991 191.672C214.528 191.453 215.085 191.339 215.663 191.339C216.241 191.339 216.799 191.453 217.335 191.672C217.872 191.891 218.34 192.208 218.752 192.615C219.163 193.026 219.476 193.495 219.7 194.031C219.918 194.568 220.033 195.12 220.033 195.698Z" fill="#373737"/>
<mask id="mask2_989_2155" style="mask-type:luminance" maskUnits="userSpaceOnUse" x="31" y="102" width="238" height="38">
<path d="M31.606 102.667H268.481V140H31.606V102.667Z" fill="white"/>
</mask>
<g mask="url(#mask2_989_2155)">
<path d="M49.429 103.948H250.679C251.825 103.948 252.965 104.063 254.09 104.287C255.221 104.51 256.314 104.839 257.377 105.281C258.434 105.719 259.445 106.255 260.398 106.896C261.356 107.531 262.241 108.255 263.054 109.068C263.866 109.875 264.59 110.76 265.226 111.714C265.866 112.667 266.408 113.672 266.846 114.734C267.283 115.792 267.616 116.885 267.84 118.01C268.064 119.135 268.179 120.271 268.179 121.417C268.179 122.563 268.064 123.698 267.84 124.823C267.616 125.948 267.283 127.042 266.846 128.099C266.408 129.162 265.866 130.167 265.226 131.12C264.59 132.073 263.866 132.958 263.054 133.766C262.241 134.578 261.356 135.302 260.398 135.938C259.445 136.578 258.434 137.115 257.377 137.552C256.314 137.995 255.221 138.323 254.09 138.547C252.965 138.771 251.825 138.885 250.679 138.885H49.429C48.2779 138.885 47.1425 138.771 46.0123 138.547C44.8873 138.323 43.7935 137.995 42.731 137.552C41.6685 137.115 40.6581 136.578 39.705 135.938C38.7467 135.302 37.8665 134.578 37.054 133.766C36.2415 132.958 35.5123 132.073 34.8769 131.12C34.2362 130.167 33.6998 129.162 33.2571 128.099C32.8196 127.042 32.4862 125.948 32.2623 124.823C32.0383 123.698 31.929 122.563 31.929 121.417C31.929 120.271 32.0383 119.135 32.2623 118.01C32.4862 116.885 32.8196 115.792 33.2571 114.734C33.6998 113.672 34.2362 112.667 34.8769 111.714C35.5123 110.76 36.2415 109.875 37.054 109.068C37.8665 108.255 38.7467 107.531 39.705 106.896C40.6581 106.255 41.6685 105.719 42.731 105.281C43.7935 104.839 44.8873 104.51 46.0123 104.287C47.1425 104.063 48.2779 103.948 49.429 103.948Z" fill="#BF322A"/>
</g>
<mask id="mask3_989_2155" style="mask-type:luminance" maskUnits="userSpaceOnUse" x="57" y="25" width="186" height="79">
<path d="M57.4133 25.375H242.747V104H57.4133V25.375Z" fill="white"/>
</mask>
<g mask="url(#mask3_989_2155)">
<path d="M66.9133 25.3489H233.163C237.991 25.3489 241.913 29.2603 241.913 34.0833V103.948H58.1633V34.0833C58.1633 29.2603 62.0852 25.3489 66.9133 25.3489Z" fill="#BF322A"/>
</g>
<path d="M58.1633 86.4844H241.913V103.948H58.1633V86.4844Z" fill="#4D4D4D"/>
<path d="M141.293 103.948C144.528 103.307 152.215 101.339 159.017 94.6876C163.96 89.849 166.299 84.6251 167.377 81.6042C170.471 87.3074 176.434 90.8438 182.861 90.8438C188.502 90.8438 193.684 87.6407 197.783 82.3334C210.945 86.2188 220.043 94.422 220.043 103.938C220.043 113.453 210.945 121.656 197.783 125.542C193.684 120.229 188.502 117.031 182.861 117.031C176.955 117.031 171.564 120.51 167.377 126.266C166.439 123.375 163.585 115.87 155.924 110.099C150.158 105.755 144.335 104.396 141.293 103.922V103.948Z" fill="#96C71F"/>
<path d="M259.413 172.016C257.241 169.542 251.684 163.88 242.517 161.323C235.835 159.469 230.137 160.068 226.991 160.641C230.392 155.12 230.476 148.188 227.267 142.63C224.439 137.75 219.096 134.875 212.429 133.979C209.226 120.661 211.783 108.688 220.043 103.938C228.304 99.1719 239.965 102.943 249.924 112.375C247.361 118.578 247.179 124.646 250.007 129.521C252.96 134.62 258.674 137.542 265.767 138.281C263.726 140.531 258.642 146.766 257.465 156.266C256.57 163.438 258.32 169.135 259.429 172L259.413 172.016Z" fill="#96C71F"/>
<path d="M220.043 103.948L244.111 145.537Z" fill="#96C71F"/>
<path d="M259.413 35.8698C258.351 38.9896 256.221 46.6146 258.585 55.8229C260.309 62.5208 263.684 67.1458 265.757 69.5885C259.257 69.4063 253.21 72.7917 249.991 78.349C247.163 83.2292 247.361 89.3073 249.908 95.4948C239.955 104.927 228.293 108.703 220.033 103.938C211.773 99.1719 209.21 87.2083 212.413 73.8906C219.08 73 224.439 70.1198 227.257 65.2448C230.21 60.1458 229.887 53.7292 226.976 47.2344C229.955 47.875 237.898 49.1458 246.731 45.4167C253.392 42.6042 257.465 38.2448 259.398 35.8594L259.413 35.8698Z" fill="#96C71F"/>
<path d="M220.043 103.937L244.111 62.3489Z" fill="#96C71F"/>
<path d="M241.913 103.948C241.913 104.667 241.877 105.38 241.809 106.089C241.736 106.802 241.632 107.505 241.491 108.208C241.356 108.911 241.179 109.604 240.971 110.286C240.762 110.969 240.523 111.641 240.247 112.302C239.976 112.964 239.669 113.609 239.33 114.24C238.991 114.87 238.627 115.484 238.226 116.078C237.83 116.672 237.403 117.245 236.95 117.797C236.497 118.349 236.017 118.88 235.507 119.385C235.002 119.891 234.471 120.37 233.919 120.823C233.366 121.276 232.788 121.703 232.195 122.099C231.601 122.495 230.986 122.865 230.356 123.198C229.721 123.536 229.075 123.844 228.413 124.115C227.752 124.391 227.08 124.63 226.392 124.839C225.71 125.047 225.012 125.219 224.309 125.359C223.611 125.495 222.903 125.599 222.189 125.672C221.476 125.74 220.762 125.776 220.044 125.776C219.33 125.776 218.616 125.74 217.903 125.672C217.189 125.599 216.481 125.495 215.778 125.359C215.075 125.219 214.382 125.047 213.7 124.839C213.012 124.63 212.34 124.391 211.679 124.115C211.017 123.844 210.366 123.536 209.736 123.198C209.106 122.865 208.491 122.495 207.898 122.099C207.299 121.703 206.726 121.276 206.174 120.823C205.616 120.37 205.09 119.891 204.58 119.385C204.075 118.88 203.596 118.349 203.142 117.797C202.689 117.245 202.262 116.672 201.861 116.078C201.465 115.484 201.096 114.87 200.757 114.24C200.424 113.609 200.116 112.964 199.84 112.302C199.57 111.641 199.325 110.969 199.116 110.286C198.913 109.604 198.736 108.911 198.596 108.208C198.46 107.505 198.351 106.802 198.283 106.089C198.21 105.38 198.179 104.667 198.179 103.948C198.179 103.234 198.21 102.521 198.283 101.813C198.351 101.099 198.46 100.391 198.596 99.6927C198.736 98.9896 198.913 98.2969 199.116 97.6146C199.325 96.9323 199.57 96.2604 199.84 95.599C200.116 94.9375 200.424 94.2917 200.757 93.6615C201.096 93.0313 201.465 92.4167 201.861 91.8229C202.262 91.2292 202.689 90.6563 203.142 90.1042C203.596 89.5521 204.075 89.0208 204.58 88.5156C205.09 88.0104 205.616 87.5313 206.174 87.0781C206.726 86.625 207.299 86.1979 207.898 85.8021C208.491 85.4063 209.106 85.0365 209.736 84.7031C210.366 84.3646 211.017 84.0573 211.679 83.7865C212.34 83.5104 213.012 83.2708 213.7 83.0625C214.382 82.8542 215.075 82.6823 215.778 82.5417C216.481 82.401 217.189 82.2969 217.903 82.2292C218.616 82.1563 219.33 82.125 220.044 82.125C220.762 82.125 221.476 82.1563 222.189 82.2292C222.903 82.2969 223.611 82.401 224.309 82.5417C225.012 82.6823 225.71 82.8542 226.392 83.0625C227.08 83.2708 227.752 83.5104 228.413 83.7865C229.075 84.0573 229.721 84.3646 230.356 84.7031C230.986 85.0365 231.601 85.4063 232.195 85.8021C232.788 86.1979 233.366 86.625 233.919 87.0781C234.471 87.5313 235.002 88.0104 235.507 88.5156C236.017 89.0208 236.497 89.5521 236.95 90.1042C237.403 90.6563 237.83 91.2292 238.226 91.8229C238.627 92.4167 238.991 93.0313 239.33 93.6615C239.669 94.2917 239.976 94.9375 240.247 95.599C240.523 96.2604 240.762 96.9323 240.971 97.6146C241.179 98.2969 241.356 98.9896 241.491 99.6927C241.632 100.391 241.736 101.099 241.809 101.813C241.877 102.521 241.913 103.234 241.913 103.948Z" fill="#FF4238"/>
</svg>
