<svg width="300" height="300" viewBox="0 0 300 300" fill="none" xmlns="http://www.w3.org/2000/svg">
<path d="M233.83 145.609C233.83 184.839 202.101 216.646 162.965 216.646C123.825 216.646 92.1008 184.839 92.1008 145.609C92.1008 106.38 123.825 74.5781 162.965 74.5781C202.101 74.5781 233.83 106.38 233.83 145.609Z" fill="#F9B289"/>
<path d="M211.502 171.885C193.929 178.62 186.642 159.714 167.533 159.714C165.971 159.714 164.455 159.839 162.965 160.057C161.476 159.839 159.955 159.714 158.392 159.714C139.283 159.714 132.002 178.62 114.424 171.885C98.8664 165.922 97.507 158.552 94.981 155.938C95.4028 152.146 98.2466 130.438 109.184 122.974C121.179 114.786 121.939 98.4167 141.851 105.578C152.132 109.281 173.793 109.281 184.08 105.578C203.986 98.4167 204.752 114.786 216.747 122.974C227.674 130.432 230.528 152.135 230.95 155.938C228.418 158.547 227.064 165.922 211.502 171.885ZM246.012 169.073C246.012 162.245 241.127 156.578 234.715 155.453C234.611 150.708 234.09 131.313 232.314 124.526C220.346 78.6875 178.877 73.974 163.429 73.8542V73.8438C163.283 73.8438 163.116 73.849 162.965 73.849C162.809 73.849 162.642 73.8438 162.497 73.8438V73.8542C147.049 73.974 105.585 78.6875 93.6112 124.526C91.8403 131.313 91.3195 150.703 91.2153 155.453C84.7987 156.578 79.9185 162.24 79.9185 169.073C79.9185 176.531 85.7362 182.599 93.0174 182.88C88.4653 185.12 85.3195 189.839 85.3195 195.318C85.3195 202.078 90.0955 207.693 96.408 208.901C92.7778 211.391 90.382 215.604 90.382 220.385C90.382 228.026 96.4862 234.219 104.007 234.219C104.814 234.219 105.596 234.13 106.366 233.995C104.877 236.214 104.007 238.891 104.007 241.771C104.007 249.411 110.106 255.604 117.632 255.604C119.814 255.604 121.866 255.073 123.695 254.151C123.736 261.75 129.814 267.901 137.309 267.901C142.491 267.901 146.991 264.969 149.299 260.651C149.398 260.661 149.491 260.672 149.596 260.688C150.887 266.964 156.366 271.682 162.934 271.682H162.997C169.564 271.682 175.043 266.964 176.33 260.688C176.429 260.672 176.528 260.661 176.632 260.651C178.934 264.969 183.439 267.901 188.611 267.901C196.111 267.901 202.189 261.75 202.236 254.151C204.064 255.073 206.116 255.604 208.293 255.604C215.814 255.604 221.918 249.411 221.918 241.771C221.918 238.891 221.049 236.214 219.559 233.995C220.325 234.13 221.111 234.219 221.918 234.219C229.439 234.219 235.538 228.026 235.538 220.385C235.538 215.604 233.153 211.391 229.517 208.901C235.83 207.693 240.606 202.078 240.606 195.318C240.606 189.839 237.46 185.12 232.908 182.88C240.189 182.599 246.012 176.531 246.012 169.073Z" fill="white"/>
<mask id="mask0_989_1989" style="mask-type:luminance" maskUnits="userSpaceOnUse" x="78" y="72" width="169" height="201">
<path d="M78.7466 72H246.778V272.516H78.7466V72Z" fill="white"/>
</mask>
<g mask="url(#mask0_989_1989)">
<path d="M211.502 171.886L211.215 171.12C208.637 172.109 206.32 172.516 204.158 172.516C201.132 172.516 198.392 171.708 195.7 170.464C191.658 168.599 187.747 165.734 183.288 163.307C178.83 160.875 173.788 158.891 167.533 158.891C165.924 158.891 164.372 159.026 162.851 159.245L162.965 160.057L163.08 159.245C161.559 159.026 159.997 158.891 158.392 158.891C154.221 158.891 150.59 159.771 147.314 161.078C142.398 163.047 138.278 165.953 134.252 168.318C132.236 169.505 130.247 170.557 128.195 171.307C126.142 172.063 124.038 172.516 121.767 172.516C119.606 172.516 117.288 172.104 114.715 171.12C107.028 168.172 102.939 164.922 100.424 162.109C99.1685 160.703 98.304 159.401 97.5852 158.261C96.8665 157.12 96.2987 156.135 95.5696 155.37L94.981 155.938L95.7935 156.031C95.9967 154.162 96.8092 147.828 98.9185 141.073C99.9706 137.698 101.346 134.219 103.111 131.146C104.882 128.073 107.044 125.417 109.642 123.651C114.773 120.141 117.856 115.25 121.085 111.37C122.695 109.427 124.33 107.734 126.241 106.542C128.148 105.349 130.314 104.63 133.116 104.625C135.445 104.625 138.21 105.135 141.575 106.349C144.231 107.302 147.559 108 151.236 108.469C154.919 108.938 158.939 109.172 162.965 109.172C166.986 109.172 171.012 108.938 174.689 108.469C178.366 108 181.695 107.302 184.356 106.344C187.715 105.135 190.486 104.625 192.814 104.625C195.611 104.63 197.783 105.349 199.689 106.542C202.544 108.328 204.804 111.255 207.273 114.432C209.741 117.604 212.439 121.016 216.288 123.651C218.882 125.417 221.044 128.073 222.809 131.146C225.465 135.75 227.231 141.276 228.356 145.99C229.486 150.714 229.981 154.625 230.137 156.026L230.95 155.938L230.361 155.365C229.627 156.135 229.064 157.115 228.34 158.255C227.262 159.964 225.861 162.047 223.294 164.287C220.721 166.526 216.976 168.912 211.215 171.12L211.502 171.886L211.794 172.646C219.669 169.63 224.033 166.214 226.721 163.198C228.064 161.693 228.986 160.287 229.721 159.125C230.45 157.964 231.002 157.042 231.528 156.505L231.799 156.224L231.757 155.844C231.544 153.912 230.721 147.495 228.564 140.583C227.486 137.125 226.075 133.542 224.221 130.328C222.372 127.115 220.075 124.26 217.205 122.302C212.408 119.031 209.408 114.339 206.096 110.328C204.434 108.328 202.689 106.5 200.554 105.156C198.424 103.818 195.898 102.984 192.814 102.99C190.247 102.99 187.294 103.552 183.804 104.807C181.314 105.703 178.08 106.391 174.486 106.849C170.887 107.307 166.924 107.537 162.965 107.537C159.002 107.537 155.038 107.307 151.445 106.849C147.846 106.391 144.611 105.703 142.122 104.807C138.632 103.552 135.679 102.99 133.116 102.99C130.028 102.984 127.507 103.818 125.372 105.156C122.169 107.172 119.84 110.266 117.372 113.427C114.908 116.594 112.32 119.844 108.721 122.302C105.851 124.26 103.559 127.115 101.705 130.328C98.929 135.151 97.1373 140.802 95.981 145.62C94.8352 150.427 94.33 154.401 94.1737 155.849L94.1269 156.229L94.3977 156.505C94.9237 157.047 95.481 157.964 96.2102 159.13C97.3092 160.88 98.8404 163.151 101.57 165.526C104.299 167.901 108.226 170.386 114.132 172.646C116.872 173.698 119.398 174.151 121.767 174.151C125.09 174.151 128.08 173.255 130.908 171.948C135.153 169.979 139.075 167.099 143.413 164.74C147.757 162.375 152.486 160.531 158.392 160.526C159.908 160.531 161.392 160.651 162.851 160.865L162.965 160.88L163.08 160.865C164.538 160.651 166.017 160.531 167.533 160.526C171.471 160.531 174.882 161.349 178.007 162.599C182.7 164.469 186.741 167.307 190.851 169.729C192.903 170.938 194.981 172.042 197.169 172.844C199.361 173.646 201.669 174.151 204.158 174.151C206.528 174.151 209.054 173.698 211.794 172.646L211.502 171.886ZM246.012 169.073H246.825C246.825 161.844 241.658 155.844 234.856 154.651L234.715 155.453L235.528 155.438C235.476 153.057 235.32 147.016 234.955 140.708C234.773 137.552 234.538 134.333 234.231 131.469C233.929 128.599 233.564 126.094 233.106 124.318C230.085 112.75 225.189 103.745 219.299 96.7605C210.455 86.2813 199.393 80.3699 189.106 77.073C178.814 73.7761 169.283 73.0834 163.434 73.0313L163.429 73.8542H164.241V73.0261H163.429C163.267 73.0261 163.101 73.0313 162.965 73.0313C162.825 73.0313 162.658 73.0261 162.497 73.0261H161.679V73.8542H162.497L162.491 73.0313C154.689 73.099 140.351 74.3126 126.387 81.3126C119.408 84.8178 112.523 89.7761 106.632 96.7605C100.741 103.745 95.8456 112.75 92.8248 124.318C92.3612 126.094 91.9967 128.599 91.6946 131.469C90.7883 140.063 90.4758 151.865 90.3977 155.438L91.2154 155.453L91.0748 154.651C84.2727 155.844 79.1008 161.844 79.1008 169.073C79.1008 176.969 85.2623 183.396 92.9862 183.693L93.0175 182.88L92.6581 182.146C87.8352 184.516 84.5071 189.521 84.5071 195.318C84.5071 202.474 89.5592 208.422 96.2571 209.703L96.4081 208.901L95.9498 208.224C92.1008 210.859 89.5696 215.328 89.5696 220.386C89.5696 224.422 91.1842 228.089 93.7935 230.74C96.4029 233.391 100.017 235.037 104.007 235.031C104.872 235.037 105.705 234.943 106.507 234.802L106.366 233.995L105.689 233.537C104.116 235.886 103.189 238.724 103.189 241.771C103.189 245.813 104.809 249.474 107.419 252.125C110.028 254.776 113.648 256.422 117.632 256.422C119.945 256.422 122.127 255.854 124.059 254.875L123.695 254.151H122.882C122.924 262.198 129.361 268.714 137.309 268.719C142.804 268.719 147.575 265.604 150.017 261.031L149.299 260.651L149.169 261.453C149.294 261.474 149.403 261.484 149.486 261.5L149.596 260.688L148.799 260.849C150.163 267.5 155.965 272.5 162.934 272.5H162.997C169.96 272.5 175.762 267.5 177.127 260.849L176.33 260.688L176.439 261.495C176.528 261.484 176.632 261.474 176.757 261.453L176.632 260.651L175.913 261.031C178.351 265.604 183.127 268.719 188.611 268.719C196.57 268.714 203.002 262.198 203.049 254.151H202.236L201.866 254.875C203.799 255.854 205.981 256.422 208.294 256.422C212.283 256.422 215.898 254.776 218.507 252.125C221.116 249.474 222.731 245.813 222.731 241.771C222.731 238.724 221.814 235.886 220.236 233.537L219.559 233.995L219.413 234.802C220.221 234.943 221.054 235.031 221.919 235.031C225.903 235.037 229.523 233.391 232.132 230.74C234.741 228.089 236.356 224.422 236.356 220.386C236.356 215.328 233.83 210.859 229.981 208.224L229.518 208.901L229.669 209.703C236.366 208.422 241.419 202.474 241.424 195.318C241.424 189.521 238.09 184.516 233.268 182.146L232.908 182.88L232.939 183.693C240.663 183.396 246.825 176.969 246.825 169.073H245.195C245.195 176.099 239.715 181.802 232.877 182.063L229.658 182.188L232.549 183.609C236.83 185.719 239.794 190.162 239.794 195.318C239.794 201.688 235.288 206.969 229.366 208.099L227.439 208.469L229.059 209.578C232.476 211.917 234.726 215.88 234.726 220.386C234.726 223.984 233.288 227.234 230.971 229.594C228.648 231.948 225.455 233.401 221.919 233.401C221.174 233.401 220.434 233.323 219.705 233.193L217.809 232.854L218.882 234.453C220.283 236.537 221.101 239.052 221.101 241.771C221.101 245.37 219.669 248.62 217.346 250.979C215.023 253.333 211.83 254.787 208.294 254.787C206.247 254.787 204.325 254.292 202.601 253.417L201.429 252.828L201.419 254.146C201.377 261.307 195.653 267.083 188.611 267.083C183.752 267.083 179.523 264.328 177.351 260.261L177.075 259.75L176.502 259.839C176.424 259.854 176.335 259.865 176.226 259.875L175.653 259.953L175.533 260.521C174.32 266.432 169.163 270.87 162.997 270.865H162.934C156.767 270.87 151.611 266.432 150.392 260.521L150.278 259.953L149.705 259.875C149.59 259.865 149.497 259.854 149.419 259.839L148.851 259.75L148.58 260.261C146.408 264.328 142.179 267.083 137.309 267.083C130.273 267.083 124.549 261.307 124.507 254.146L124.502 252.828L123.33 253.417C121.606 254.292 119.684 254.787 117.632 254.787C114.096 254.787 110.898 253.333 108.575 250.979C106.257 248.62 104.82 245.37 104.82 241.771C104.82 239.052 105.642 236.537 107.038 234.453L108.116 232.854L106.226 233.193C105.491 233.323 104.757 233.401 104.007 233.401C100.471 233.401 97.2727 231.948 94.955 229.594C92.6321 227.234 91.1998 223.984 91.1998 220.386C91.1998 215.88 93.4498 211.917 96.8665 209.578L98.4862 208.469L96.5592 208.099C90.6373 206.969 86.1321 201.688 86.1321 195.318C86.1321 190.162 89.0956 185.719 93.3769 183.615L96.2779 182.188L93.0487 182.063C86.2102 181.802 80.731 176.099 80.731 169.073C80.731 162.635 85.33 157.313 91.3508 156.261L92.0123 156.141L92.0279 155.474C92.08 153.104 92.2362 147.073 92.6008 140.802C92.7831 137.662 93.0175 134.464 93.3144 131.641C93.6112 128.813 93.9758 126.349 94.3977 124.734C97.3665 113.38 102.142 104.609 107.877 97.8126C116.476 87.6251 127.241 81.8647 137.32 78.6303C147.392 75.4011 156.767 74.7136 162.502 74.6667L163.309 74.6615V73.8438H162.497V74.6615C162.627 74.6615 162.799 74.6615 162.965 74.6615C163.127 74.6615 163.294 74.6615 163.429 74.6615V73.8438H162.616V74.6615L163.424 74.6667C171.07 74.724 185.184 75.9376 198.809 82.7761C205.627 86.198 212.32 91.0209 218.054 97.8126C223.783 104.609 228.559 113.38 231.528 124.734C231.95 126.349 232.314 128.813 232.616 131.641C233.512 140.125 233.825 151.922 233.903 155.474L233.913 156.141L234.575 156.261C240.596 157.313 245.2 162.641 245.195 169.073H246.012Z" fill="#D3D2D2"/>
</g>
<path d="M144.908 154.812C144.908 159.026 138.903 162.443 131.491 162.443C124.08 162.443 118.075 159.026 118.075 154.812C118.075 150.594 124.08 147.177 131.491 147.177C138.903 147.177 144.908 150.594 144.908 154.812Z" fill="#F79682"/>
<path d="M207.856 154.812C207.856 159.026 201.851 162.443 194.439 162.443C187.028 162.443 181.018 159.026 181.018 154.812C181.018 150.594 187.028 147.177 194.439 147.177C201.851 147.177 207.856 150.594 207.856 154.812Z" fill="#F79682"/>
<path d="M198.424 188.891C176.851 188.891 162.965 179.839 162.965 169.089C162.965 168.62 162.991 168.141 163.054 167.646C164.273 177.734 177.851 185.964 198.424 185.964C220.299 185.964 227.82 169.125 230.054 161.776C230.33 161.635 230.611 161.49 230.892 161.339C230.892 161.339 226.408 188.891 198.424 188.891Z" fill="#BDBCBD"/>
<path d="M162.965 166.162C162.965 158.714 170.439 147.849 190.517 153.412C210.601 158.979 209.96 169.406 230.892 158.412C230.892 158.412 226.408 185.964 198.424 185.964C176.851 185.964 162.965 176.906 162.965 166.162Z" fill="white"/>
<path d="M121.768 172.516C119.606 172.516 117.288 172.104 114.715 171.12C109.617 169.167 106.101 167.078 103.58 165.073C105.992 165.844 108.028 166.177 109.856 166.177C114.814 166.177 118.268 163.745 123.617 160.995C125.83 161.906 128.549 162.443 131.492 162.443C138.898 162.443 144.898 159.031 144.908 154.818C145.137 154.818 145.367 154.812 145.59 154.812C151.231 154.812 155.32 156.495 158.106 158.896C154.054 158.932 150.512 159.802 147.314 161.078C142.398 163.047 138.278 165.953 134.252 168.318C132.236 169.505 130.247 170.557 128.195 171.307C126.143 172.063 124.038 172.516 121.768 172.516Z" fill="#B98364"/>
<path d="M127.507 188.891C99.5176 188.891 95.0332 161.339 95.0332 161.339C96.6374 162.182 98.1165 162.901 99.4811 163.5C100.09 164.162 100.778 164.839 101.57 165.526C104.299 167.901 108.226 170.385 114.132 172.646C116.867 173.698 119.393 174.151 121.762 174.151H121.768C125.096 174.151 128.08 173.255 130.908 171.948C135.153 169.979 139.075 167.099 143.413 164.74C147.757 162.375 152.486 160.531 158.393 160.526C158.851 160.526 159.299 160.537 159.747 160.557C161.976 163.219 162.966 166.38 162.966 169.089C162.966 179.839 149.08 188.891 127.507 188.891Z" fill="#BDBCBD"/>
<path d="M121.767 174.151H121.762C119.392 174.151 116.866 173.698 114.132 172.646C108.226 170.385 104.299 167.901 101.569 165.526C100.778 164.838 100.09 164.161 99.481 163.5C100.965 164.156 102.325 164.677 103.58 165.073C106.101 167.078 109.616 169.167 114.715 171.12C117.288 172.104 119.606 172.516 121.767 172.516C124.038 172.516 126.142 172.062 128.194 171.307C130.247 170.557 132.236 169.505 134.252 168.318C138.278 165.953 142.398 163.047 147.314 161.078C150.512 159.802 154.054 158.932 158.106 158.896C158.715 159.417 159.262 159.979 159.747 160.557C159.299 160.536 158.851 160.526 158.392 160.526C152.486 160.531 147.757 162.375 143.413 164.74C139.075 167.099 135.153 169.979 130.908 171.948C128.08 173.255 125.096 174.151 121.767 174.151Z" fill="#9E9D9D"/>
<path d="M131.491 162.443C128.549 162.443 125.83 161.906 123.616 160.995C126.7 159.411 130.413 157.724 135.408 156.338C138.96 155.354 142.116 154.885 144.908 154.818C144.898 159.031 138.898 162.443 131.491 162.443Z" fill="#B76E5F"/>
<path d="M162.966 166.162C162.966 158.714 155.486 147.849 135.408 153.412C115.33 158.979 115.965 169.406 95.0332 158.412C95.0332 158.412 99.5176 185.964 127.507 185.964C149.08 185.964 162.966 176.906 162.966 166.162Z" fill="white"/>
<path d="M179.137 155.365C179.137 161.297 171.892 166.099 162.965 166.099C154.033 166.099 146.793 161.297 146.793 155.365C146.793 149.437 154.033 144.63 162.965 144.63C171.892 144.63 179.137 149.437 179.137 155.365Z" fill="#F9B289"/>
<path d="M210.096 137.734C209.33 136.901 208.491 136.109 207.637 135.354C206.794 134.588 205.924 133.844 205.017 133.146C203.215 131.75 201.304 130.489 199.299 129.422C197.314 128.307 195.226 127.38 193.059 126.693C191.976 126.349 190.877 126.068 189.762 125.854C188.648 125.609 187.523 125.448 186.382 125.344L186.408 124.896C188.814 123.427 191.517 123.052 194.111 123.229C196.71 123.427 199.226 124.224 201.465 125.443C203.71 126.661 205.684 128.318 207.273 130.302C208.83 132.302 210.106 134.609 210.445 137.443L210.096 137.734Z" fill="white"/>
<path d="M115.486 137.443C115.83 134.615 117.106 132.313 118.658 130.307C120.247 128.323 122.221 126.672 124.46 125.443C126.695 124.214 129.21 123.417 131.809 123.214C134.403 123.037 137.111 123.417 139.518 124.896L139.544 125.344C138.408 125.448 137.278 125.615 136.169 125.854C135.049 126.068 133.945 126.349 132.861 126.693C130.695 127.38 128.611 128.313 126.627 129.422C124.622 130.49 122.71 131.75 120.908 133.146C120.002 133.844 119.132 134.589 118.288 135.354C117.434 136.109 116.596 136.896 115.835 137.734L115.486 137.443Z" fill="white"/>
<path d="M179.971 142.057C180.455 140.51 181.455 139.167 182.762 138.12C184.064 137.083 185.799 136.385 187.606 136.411C189.413 136.422 191.122 137.151 192.408 138.193C193.705 139.239 194.679 140.557 195.273 142.057C193.872 141.271 192.611 140.479 191.335 139.917C190.064 139.344 188.814 139.01 187.575 138.995C186.34 138.979 185.085 139.286 183.82 139.844C182.549 140.401 181.294 141.167 179.971 142.057Z" fill="#4B1615"/>
<path d="M130.653 142.057C131.137 140.51 132.142 139.167 133.45 138.12C134.747 137.083 136.486 136.385 138.288 136.411C140.101 136.422 141.809 137.151 143.096 138.193C144.392 139.239 145.366 140.557 145.96 142.057C144.559 141.271 143.299 140.479 142.023 139.917C140.752 139.344 139.502 139.01 138.262 138.995C137.028 138.979 135.773 139.286 134.502 139.844C133.236 140.401 131.981 141.167 130.653 142.057Z" fill="#4B1615"/>
<path d="M229.851 88.7969C210.033 77.3229 187.486 71.5156 164.898 71.3542V71.3438C164.762 71.3438 164.617 71.349 164.476 71.349C164.335 71.349 164.189 71.3438 164.054 71.3438V71.3542C141.393 71.5156 115.898 77.3229 96.0749 88.7969C84.4811 99.6823 90.8092 119.464 94.0644 123.026C94.0644 119.078 108.695 107.469 113.377 104.844C128.518 96.349 147.372 93.1875 164.476 93.1354C181.523 93.1875 197.408 96.349 212.549 104.844C217.231 107.469 231.861 119.078 231.861 123.026C235.122 119.464 241.45 99.6823 229.851 88.7969Z" fill="white"/>
<path d="M231.861 123.026C231.861 122.146 231.132 120.885 229.95 119.427C225.83 114.344 216.189 106.885 212.549 104.844C197.408 96.349 181.523 93.1876 164.476 93.1355C147.372 93.1876 128.518 96.349 113.377 104.844C108.695 107.469 94.0645 119.078 94.0645 123.026C92.2207 121.01 89.3926 113.787 89.3926 105.927C89.3926 100.443 90.7624 94.6511 94.8145 90.0938C94.8874 90.0574 94.9603 90.0157 95.0332 89.9792C96.5697 89.1876 98.4655 88.198 100.7 87.0886C98.2832 91.8022 96.0957 97.7292 97.8978 101.943C99.153 104.88 101.002 106.031 103.252 106.031C107.085 106.031 112.085 102.682 117.309 99.1147C121.45 96.2865 140.596 89.9324 164.184 89.9324C186.825 89.9324 213.564 95.7917 235.012 116.245C234.106 119.313 232.96 121.703 232.023 122.839V122.844C231.965 122.912 231.913 122.969 231.861 123.026Z" fill="#D3D2D2"/>
<mask id="mask1_989_1989" style="mask-type:luminance" maskUnits="userSpaceOnUse" x="64" y="27" width="169" height="105">
<path d="M64.0801 27.6458H232.08V132H64.0801V27.6458Z" fill="white"/>
</mask>
<g mask="url(#mask1_989_1989)">
<path d="M230.893 89.9792C230.893 89.9792 217.674 27.6406 151.335 27.6406C84.9967 27.6406 64.8926 95.526 64.8926 131.859H74.9447C74.9447 131.859 76.6686 99.474 95.0332 89.9792C110.939 81.7552 165.658 52.5781 230.893 89.9792Z" fill="#C0262C"/>
</g>
<mask id="mask2_989_1989" style="mask-type:luminance" maskUnits="userSpaceOnUse" x="52" y="118" width="35" height="36">
<path d="M52.8821 118.667H86.7467V153.333H52.8821V118.667Z" fill="white"/>
</mask>
<g mask="url(#mask2_989_1989)">
<path d="M86.5644 136.354C86.5644 145.641 79.054 153.167 69.7935 153.167C60.5279 153.167 53.0227 145.641 53.0227 136.354C53.0227 127.068 60.5279 119.537 69.7935 119.537C79.054 119.537 86.5644 127.068 86.5644 136.354Z" fill="#E9E9E9"/>
</g>
<mask id="mask3_989_1989" style="mask-type:luminance" maskUnits="userSpaceOnUse" x="52" y="126" width="19" height="28">
<path d="M52.8821 126.667H70.7467V153.333H52.8821V126.667Z" fill="white"/>
</mask>
<g mask="url(#mask3_989_1989)">
<path d="M69.8196 153.167C69.8248 153.167 69.8248 153.167 69.83 153.167C69.83 153.167 69.8248 153.167 69.8196 153.167ZM53.0279 135.912C53.0279 135.906 53.0279 135.906 53.0279 135.901C53.0279 135.906 53.0279 135.912 53.0279 135.912ZM53.8248 131.198C53.8248 131.198 53.8248 131.193 53.8248 131.188C53.8248 131.193 53.8248 131.193 53.8248 131.198ZM53.8456 131.13C54.33 129.641 55.0175 128.24 55.8717 126.969L55.8769 126.958C55.0227 128.235 54.33 129.636 53.8456 131.13Z" fill="#D3D2D2"/>
</g>
<mask id="mask4_989_1989" style="mask-type:luminance" maskUnits="userSpaceOnUse" x="52" y="126" width="33" height="28">
<path d="M52.8821 126.667H84.08V153.333H52.8821V126.667Z" fill="white"/>
</mask>
<g mask="url(#mask4_989_1989)">
<path d="M69.7935 153.167C60.5279 153.167 53.0227 145.641 53.0227 136.354C53.0227 136.344 53.0227 136.339 53.0227 136.328V136.323C53.0227 136.318 53.0227 136.307 53.0227 136.302V136.297C53.0227 136.286 53.0227 136.281 53.0227 136.271C53.0227 136.266 53.0227 136.255 53.0227 136.245C53.0227 136.245 53.0227 136.245 53.0227 136.24C53.0227 136.234 53.0227 136.229 53.0227 136.224C53.0227 136.219 53.0227 136.219 53.0227 136.214C53.0227 136.208 53.0227 136.198 53.0227 136.188C53.0227 136.182 53.0227 136.172 53.0227 136.167C53.0227 136.161 53.0227 136.161 53.0227 136.156C53.0227 136.151 53.0227 136.146 53.0227 136.141C53.0227 136.135 53.0227 136.135 53.0227 136.13C53.0227 136.125 53.0227 136.12 53.0227 136.115C53.0227 136.109 53.0227 136.104 53.0227 136.099C53.0227 136.094 53.0227 136.094 53.0227 136.089C53.0227 136.083 53.0227 136.078 53.0227 136.078C53.0227 136.073 53.0227 136.068 53.0227 136.063C53.0227 136.057 53.0227 136.052 53.0227 136.052C53.0227 136.047 53.0227 136.042 53.0227 136.036C53.0227 136.026 53.0227 136.021 53.0227 136.016C53.0227 136.01 53.0227 136.01 53.0227 136.005C53.0227 136 53.0227 136 53.0227 135.995C53.0227 135.99 53.0227 135.984 53.0227 135.984C53.0227 135.979 53.0227 135.974 53.0227 135.969C53.0227 135.964 53.0227 135.958 53.0279 135.958C53.0279 135.948 53.0279 135.943 53.0279 135.938C53.0279 135.932 53.0279 135.927 53.0279 135.922C53.0279 135.922 53.0279 135.917 53.0279 135.911C53.0279 135.911 53.0279 135.906 53.0279 135.901C53.0279 135.896 53.0279 135.891 53.0279 135.885C53.0279 135.885 53.0279 135.885 53.0279 135.88C53.0279 135.87 53.0279 135.859 53.0279 135.849V135.844C53.0279 135.839 53.0279 135.833 53.0279 135.828V135.823C53.08 134.219 53.3508 132.677 53.8196 131.219C53.8196 131.214 53.8196 131.214 53.8196 131.214C53.8196 131.208 53.8196 131.203 53.8248 131.198C53.8248 131.193 53.8248 131.193 53.8248 131.188C53.83 131.188 53.83 131.182 53.83 131.177C53.83 131.172 53.8352 131.161 53.8352 131.156C53.8352 131.156 53.8352 131.156 53.8352 131.151C53.8404 131.146 53.8404 131.141 53.8404 131.135C53.8456 131.13 53.8456 131.13 53.8456 131.13C54.33 129.635 55.0227 128.234 55.8769 126.958L55.9081 126.922C54.2258 131.323 52.9029 138.115 59.6165 140.109C66.804 142.245 69.7935 148.141 76.5956 148.141C78.4081 148.135 80.4915 147.719 82.9967 146.698C79.955 150.589 75.2519 153.115 69.9498 153.167C69.9498 153.167 69.9498 153.167 69.9446 153.167C69.9394 153.167 69.929 153.167 69.9185 153.167C69.9185 153.167 69.9185 153.167 69.9133 153.167C69.9081 153.167 69.8977 153.167 69.8925 153.167C69.8873 153.167 69.8821 153.167 69.8821 153.167C69.8717 153.167 69.8665 153.167 69.8612 153.167C69.856 153.167 69.856 153.167 69.8508 153.167C69.8456 153.167 69.8404 153.167 69.83 153.167C69.8248 153.167 69.8248 153.167 69.8196 153.167C69.8092 153.167 69.7987 153.167 69.7935 153.167Z" fill="#C2C1C1"/>
</g>
<path d="M94.8508 90.1199C94.9915 88.9063 95.3665 87.7397 95.83 86.6147C96.2935 85.4897 96.8821 84.422 97.5487 83.3959C98.8769 81.3386 100.71 79.6667 102.611 78.1824C104.528 76.698 106.616 75.4636 108.809 74.5001C111.017 73.5522 113.309 72.849 115.642 72.4011L115.679 72.547C113.413 73.2292 111.205 74.073 109.137 75.1772C107.059 76.2553 105.116 77.5782 103.377 79.1147C101.627 80.6459 100.2 82.4688 98.7727 84.2761C97.3612 86.099 96.0956 88.0522 94.9967 90.1563L94.8508 90.1199Z" fill="#770F19"/>
<path d="M94.8507 90.151C94.2101 88.6926 93.9289 87.151 93.7778 85.6093C93.6216 84.0572 93.8559 82.4947 94.0747 80.9583C94.3091 79.4166 94.6528 77.8905 95.1893 76.4218C95.7466 74.9739 96.4862 73.5624 97.533 72.427L97.6528 72.5208C96.8143 73.7864 96.257 75.1978 95.908 76.6458C95.5382 78.0937 95.3507 79.5833 95.2778 81.078C95.1945 82.5728 95.3507 84.0676 95.283 85.5624C95.2309 87.0624 95.1841 88.5676 94.9966 90.1249L94.8507 90.151Z" fill="#770F19"/>
<path d="M94.9601 89.9688C94.7518 88.526 94.882 87.1042 95.1216 85.7135C95.3612 84.3125 95.9549 83 96.5018 81.7031C97.0643 80.401 97.7101 79.1302 98.5018 77.9479C99.3143 76.7865 100.267 75.6771 101.471 74.9375L101.559 75.0573C100.528 75.974 99.757 77.1198 99.1528 78.3333C98.5226 79.5417 98.0382 80.8177 97.6372 82.1198C97.2205 83.4219 97.0226 84.7813 96.5851 86.0781C96.158 87.3802 95.7205 88.6823 95.1112 89.9896L94.9601 89.9688Z" fill="#770F19"/>
<path d="M196.648 75.6876C196.648 75.6876 196.642 75.6824 196.637 75.6824C196.642 75.6824 196.642 75.6876 196.648 75.6876Z" fill="#D3D2D2"/>
<path d="M230.893 89.9792C226.299 87.3438 221.757 85.0417 217.278 83.0365C210.236 79.8855 203.346 77.4792 196.653 75.6876H196.648C196.643 75.6876 196.643 75.6824 196.637 75.6824C185.111 72.6095 174.153 71.3699 163.96 71.3699C137.143 71.3699 115.606 79.9272 102.924 86.0053C129.34 70.3647 150.398 66.1459 166.913 66.1459C176.575 66.1459 184.689 67.5886 191.408 69.0313C198.132 70.4792 203.465 71.922 207.57 71.922C208.992 71.922 210.262 71.7501 211.393 71.3438C217.507 69.1667 217.252 63.3803 215.195 57.7605C227.424 73.672 230.887 89.9584 230.893 89.9792Z" fill="#9F1E23"/>
</svg>
